<svg width="249" height="249" viewBox="0 0 249 249" fill="none" xmlns="http://www.w3.org/2000/svg">
<circle cx="124.5" cy="124.5" r="120.5" stroke="black" stroke-width="8"/>
<path d="M124.5 159C135.449 159 142.552 167.128 147.15 176.728C149.397 181.42 150.88 186.155 151.8 189.744C151.912 190.182 152.016 190.601 152.111 191H96.8886C96.984 190.601 97.0876 190.182 97.1999 189.744C98.1205 186.155 99.6028 181.42 101.85 176.728C106.448 167.128 113.551 159 124.5 159Z" fill="#737373" stroke="black" stroke-width="8"/>
<path d="M112.552 65C94.589 78.5976 66.4476 86.8872 44.3502 89.6908" stroke="black" stroke-width="8" stroke-linecap="round"/>
<path d="M109.933 99.6285C109.933 105.787 106.9 110.994 101.576 114.8C96.1837 118.654 88.479 121 79.6844 121C70.8922 121 63.3279 118.655 58.0725 114.822C52.89 111.043 49.9326 105.838 49.9326 99.6285C49.9326 96.691 50.7531 94.9127 52.0297 93.5518C53.4527 92.0348 55.746 90.7138 59.2822 89.3796C62.1715 88.2894 65.5266 87.3151 69.4485 86.1761C70.3238 85.9219 71.2274 85.6595 72.1603 85.3858C77.1885 83.9105 82.8707 82.1588 88.9319 79.7084C94.4347 77.4837 98.2542 77.0648 100.855 77.4811C103.297 77.872 104.962 79.0409 106.236 80.8309C107.597 82.7435 108.561 85.4571 109.158 88.8382C109.748 92.1852 109.933 95.9073 109.933 99.6285Z" fill="#FBFDEE" stroke="black" stroke-width="8"/>
<ellipse cx="81.9326" cy="102" rx="12" ry="15" fill="black"/>
<path d="M137.927 65C155.889 78.5976 184.031 86.8872 206.128 89.6908" stroke="black" stroke-width="8" stroke-linecap="round"/>
<path d="M140.546 99.6285C140.546 105.787 143.578 110.994 148.903 114.8C154.295 118.654 162 121 170.794 121C179.586 121 187.151 118.655 192.406 114.822C197.589 111.043 200.546 105.838 200.546 99.6285C200.546 96.691 199.725 94.9127 198.449 93.5518C197.026 92.0348 194.732 90.7138 191.196 89.3796C188.307 88.2894 184.952 87.3151 181.03 86.1761C180.155 85.9219 179.251 85.6595 178.318 85.3858C173.29 83.9105 167.608 82.1588 161.547 79.7084C156.044 77.4837 152.224 77.0648 149.623 77.4811C147.181 77.872 145.516 79.0409 144.242 80.8309C142.881 82.7435 141.918 85.4571 141.321 88.8382C140.73 92.1852 140.546 95.9073 140.546 99.6285Z" fill="#FBFDEE" stroke="black" stroke-width="8"/>
<ellipse cx="12" cy="15" rx="12" ry="15" transform="matrix(-1 0 0 1 180.546 87)" fill="black"/>
<path d="M192.003 151.496C192.668 152.832 193 154.25 193 155.75C193 156.781 192.868 157.777 192.605 158.738C192.341 159.699 191.974 160.596 191.505 161.428C191.035 162.26 190.462 163.016 189.786 163.695C189.11 164.375 188.365 164.961 187.552 165.453C186.738 165.945 185.861 166.326 184.922 166.596C183.982 166.865 183.008 167 182 167C180.992 167 180.018 166.865 179.078 166.596C178.139 166.326 177.262 165.951 176.448 165.471C175.635 164.99 174.896 164.404 174.231 163.713C173.567 163.021 172.994 162.26 172.513 161.428C172.031 160.596 171.659 159.699 171.395 158.738C171.132 157.777 171 156.781 171 155.75C171 154.262 171.321 152.85 171.963 151.514L181.914 131L192.003 151.496Z" fill="black"/>
</svg>
