<svg width="249" height="249" viewBox="0 0 249 249" fill="none" xmlns="http://www.w3.org/2000/svg">
<circle cx="124.5" cy="124.5" r="120.5" stroke="black" stroke-width="8"/>
<path d="M124.5 159C135.449 159 142.552 167.128 147.15 176.728C149.397 181.42 150.88 186.155 151.8 189.744C151.912 190.182 152.016 190.601 152.111 191H96.8886C96.984 190.601 97.0876 190.182 97.1999 189.744C98.1205 186.155 99.6028 181.42 101.85 176.728C106.448 167.128 113.551 159 124.5 159Z" fill="#737373" stroke="black" stroke-width="8"/>
<path d="M115.693 59C105.693 85.5 59.2881 93.0702 37.1907 95.5" stroke="black" stroke-width="8" stroke-linecap="round"/>
<path d="M109.124 101.511C109.124 106.384 106.366 110.747 100.987 114.079C95.5648 117.438 87.7775 119.5 78.8761 119.5C69.9755 119.5 62.3283 117.439 57.0443 114.099C51.8188 110.796 49.1243 106.44 49.1243 101.511C49.1243 99.2623 49.818 97.92 51.0184 96.8109C52.4205 95.5154 54.7256 94.3576 58.305 93.1871C61.2099 92.2372 64.584 91.388 68.507 90.4007C69.381 90.1807 70.2822 89.9539 71.2116 89.7176C76.2351 88.4402 81.9027 86.9259 87.9469 84.8081C93.4771 82.8704 97.3959 82.4765 100.129 82.8557C102.735 83.2173 104.4 84.2927 105.595 85.7483C106.874 87.3053 107.793 89.5254 108.369 92.3551C108.941 95.1654 109.124 98.3172 109.124 101.511Z" fill="#FBFDEE" stroke="black" stroke-width="8"/>
<ellipse cx="81.1243" cy="103.567" rx="12" ry="13" fill="black"/>
<path d="M130.098 59.5C140.098 86 186.503 93.5702 208.6 96" stroke="black" stroke-width="8" stroke-linecap="round"/>
<path d="M136.667 102.011C136.667 106.884 139.425 111.247 144.804 114.579C150.226 117.938 158.013 120 166.915 120C175.815 120 183.463 117.939 188.747 114.599C193.972 111.296 196.667 106.94 196.667 102.011C196.667 99.7622 195.973 98.4199 194.773 97.3108C193.37 96.0154 191.065 94.8575 187.486 93.687C184.581 92.7371 181.207 91.888 177.284 90.9006C176.41 90.6807 175.509 90.4538 174.579 90.2175C169.556 88.9401 163.888 87.4258 157.844 85.308C152.314 83.3703 148.395 82.9764 145.662 83.3556C143.056 83.7172 141.391 84.7926 140.196 86.2482C138.917 87.8052 137.998 90.0253 137.422 92.8551C136.85 95.6653 136.667 98.8171 136.667 102.011Z" fill="#FBFDEE" stroke="black" stroke-width="8"/>
<ellipse cx="12" cy="13" rx="12" ry="13" transform="matrix(-1 0 0 1 176.667 91.0669)" fill="black"/>
<path d="M76.0031 149.496C76.6677 150.832 77 152.25 77 153.75C77 154.781 76.8682 155.777 76.6047 156.738C76.3411 157.699 75.9745 158.596 75.5047 159.428C75.0349 160.26 74.462 161.016 73.7859 161.695C73.1099 162.375 72.3651 162.961 71.5516 163.453C70.738 163.945 69.8615 164.326 68.9219 164.596C67.9823 164.865 67.0083 165 66 165C64.9917 165 64.0177 164.865 63.0781 164.596C62.1385 164.326 61.262 163.951 60.4484 163.471C59.6349 162.99 58.8958 162.404 58.2313 161.713C57.5667 161.021 56.9938 160.26 56.5125 159.428C56.0313 158.596 55.6589 157.699 55.3953 156.738C55.1318 155.777 55 154.781 55 153.75C55 152.262 55.3208 150.85 55.9625 149.514L65.9141 129L76.0031 149.496Z" fill="black"/>
<path d="M194.003 151.496C194.668 152.832 195 154.25 195 155.75C195 156.781 194.868 157.777 194.605 158.738C194.341 159.699 193.974 160.596 193.505 161.428C193.035 162.26 192.462 163.016 191.786 163.695C191.11 164.375 190.365 164.961 189.552 165.453C188.738 165.945 187.861 166.326 186.922 166.596C185.982 166.865 185.008 167 184 167C182.992 167 182.018 166.865 181.078 166.596C180.139 166.326 179.262 165.951 178.448 165.471C177.635 164.99 176.896 164.404 176.231 163.713C175.567 163.021 174.994 162.26 174.513 161.428C174.031 160.596 173.659 159.699 173.395 158.738C173.132 157.777 173 156.781 173 155.75C173 154.262 173.321 152.85 173.963 151.514L183.914 131L194.003 151.496Z" fill="black"/>
</svg>
