<svg width="249" height="249" viewBox="0 0 249 249" fill="none" xmlns="http://www.w3.org/2000/svg">
<circle cx="124.5" cy="124.5" r="120.5" stroke="black" stroke-width="8"/>
<path d="M113 106.5C113 124.005 99.2377 138 82.5 138C65.7623 138 52 124.005 52 106.5C52 88.9945 65.7623 75 82.5 75C99.2377 75 113 88.9945 113 106.5Z" fill="#FBFDEE" stroke="black" stroke-width="8"/>
<ellipse cx="83" cy="108" rx="12" ry="15" fill="black"/>
<path d="M197 106.5C197 124.005 183.238 138 166.5 138C149.762 138 136 124.005 136 106.5C136 88.9945 149.762 75 166.5 75C183.238 75 197 88.9945 197 106.5Z" fill="#FBFDEE" stroke="black" stroke-width="8"/>
<ellipse cx="166" cy="108" rx="12" ry="15" fill="black"/>
<mask id="path-6-outside-1_137_1419" maskUnits="userSpaceOnUse" x="59" y="169" width="132" height="24" fill="black">
<rect fill="white" x="59" y="169" width="132" height="24"/>
<path fill-rule="evenodd" clip-rule="evenodd" d="M112.84 181.728C116.122 186.146 119.516 190.714 125.722 190.714C132.072 190.714 134.959 185.865 137.502 181.585C138.483 179.935 139.366 178.507 140.257 177.379C141.837 175.74 143.528 174.584 145.437 174.584C148.82 174.584 151.519 178.215 154.129 181.728C157.411 186.146 160.805 190.714 167.012 190.714C173.362 190.714 176.248 185.865 178.791 181.585C181.306 177.355 183.178 174.584 186.189 174.584C186.824 174.584 187.434 174.396 187.884 174.059C188.333 173.723 188.586 173.268 188.586 172.792C188.586 172.317 188.333 171.861 187.884 171.525C187.434 171.189 186.824 171 186.189 171C179.839 171 176.952 175.85 174.409 180.13C171.894 184.357 170.022 187.13 167.012 187.13C163.629 187.13 160.93 183.499 158.32 179.986C155.038 175.568 151.644 171 145.437 171C145.317 171 145.198 171.002 145.08 171.005C145.02 171.002 144.96 171 144.899 171C138.549 171 135.663 175.85 133.12 180.13C130.605 184.357 128.733 187.13 125.722 187.13C122.34 187.13 119.641 183.499 117.03 179.986C113.749 175.568 110.354 171 104.148 171C97.9461 171 94.552 175.566 91.2687 179.983L91.2661 179.986L91.2624 179.991C88.6531 183.502 85.9573 187.13 82.5741 187.13C79.5633 187.13 77.6888 184.357 75.1766 180.13C72.6332 175.85 69.7495 171 63.3971 171C62.7614 171 62.1516 171.189 61.7021 171.525C61.2526 171.861 61 172.317 61 172.792C61 173.268 61.2526 173.723 61.7021 174.059C62.1516 174.396 62.7614 174.584 63.3971 174.584C66.4079 174.584 68.2825 177.355 70.7947 181.585C73.338 185.865 76.2217 190.714 82.5741 190.714C88.7762 190.714 92.1704 186.148 95.4537 181.732L95.4563 181.728L95.46 181.723C98.0693 178.212 100.765 174.584 104.148 174.584C107.531 174.584 110.23 178.215 112.84 181.728Z"/>
</mask>
<path fill-rule="evenodd" clip-rule="evenodd" d="M112.84 181.728C116.122 186.146 119.516 190.714 125.722 190.714C132.072 190.714 134.959 185.865 137.502 181.585C138.483 179.935 139.366 178.507 140.257 177.379C141.837 175.74 143.528 174.584 145.437 174.584C148.82 174.584 151.519 178.215 154.129 181.728C157.411 186.146 160.805 190.714 167.012 190.714C173.362 190.714 176.248 185.865 178.791 181.585C181.306 177.355 183.178 174.584 186.189 174.584C186.824 174.584 187.434 174.396 187.884 174.059C188.333 173.723 188.586 173.268 188.586 172.792C188.586 172.317 188.333 171.861 187.884 171.525C187.434 171.189 186.824 171 186.189 171C179.839 171 176.952 175.85 174.409 180.13C171.894 184.357 170.022 187.13 167.012 187.13C163.629 187.13 160.93 183.499 158.32 179.986C155.038 175.568 151.644 171 145.437 171C145.317 171 145.198 171.002 145.08 171.005C145.02 171.002 144.96 171 144.899 171C138.549 171 135.663 175.85 133.12 180.13C130.605 184.357 128.733 187.13 125.722 187.13C122.34 187.13 119.641 183.499 117.03 179.986C113.749 175.568 110.354 171 104.148 171C97.9461 171 94.552 175.566 91.2687 179.983L91.2661 179.986L91.2624 179.991C88.6531 183.502 85.9573 187.13 82.5741 187.13C79.5633 187.13 77.6888 184.357 75.1766 180.13C72.6332 175.85 69.7495 171 63.3971 171C62.7614 171 62.1516 171.189 61.7021 171.525C61.2526 171.861 61 172.317 61 172.792C61 173.268 61.2526 173.723 61.7021 174.059C62.1516 174.396 62.7614 174.584 63.3971 174.584C66.4079 174.584 68.2825 177.355 70.7947 181.585C73.338 185.865 76.2217 190.714 82.5741 190.714C88.7762 190.714 92.1704 186.148 95.4537 181.732L95.4563 181.728L95.46 181.723C98.0693 178.212 100.765 174.584 104.148 174.584C107.531 174.584 110.23 178.215 112.84 181.728Z" fill="#292F33"/>
<path d="M112.84 181.728L114.446 180.536L114.445 180.535L112.84 181.728ZM137.502 181.585L135.783 180.563L135.783 180.563L137.502 181.585ZM140.257 177.379L138.817 175.99L138.749 176.061L138.688 176.139L140.257 177.379ZM154.129 181.728L155.735 180.536L155.735 180.535L154.129 181.728ZM178.791 181.585L177.072 180.563L177.072 180.563L178.791 181.585ZM187.884 174.059L186.686 172.458L186.686 172.458L187.884 174.059ZM187.884 171.525L186.686 173.127L186.686 173.127L187.884 171.525ZM174.409 180.13L176.128 181.152L176.128 181.151L174.409 180.13ZM158.32 179.986L156.714 181.179L156.714 181.179L158.32 179.986ZM145.08 171.005L144.967 173.002L145.052 173.007L145.138 173.004L145.08 171.005ZM133.12 180.13L134.839 181.152L134.839 181.151L133.12 180.13ZM117.03 179.986L115.425 181.179L115.425 181.179L117.03 179.986ZM91.2687 179.983L92.8736 181.176L92.8738 181.176L91.2687 179.983ZM91.2661 179.986L89.6613 178.793L89.6608 178.793L91.2661 179.986ZM91.2624 179.991L92.8677 181.184L92.8677 181.184L91.2624 179.991ZM75.1766 180.13L76.896 179.108L76.8959 179.108L75.1766 180.13ZM61.7021 171.525L62.8997 173.127L62.8997 173.127L61.7021 171.525ZM70.7947 181.585L69.0751 182.606L69.0753 182.607L70.7947 181.585ZM95.4537 181.732L97.0588 182.925L97.0593 182.924L95.4537 181.732ZM95.4563 181.728L93.8513 180.535L93.8506 180.536L95.4563 181.728ZM95.46 181.723L97.065 182.916L97.0653 182.916L95.46 181.723ZM125.722 188.714C120.671 188.714 117.845 185.112 114.446 180.536L111.235 182.921C114.399 187.18 118.362 192.714 125.722 192.714V188.714ZM135.783 180.563C133.139 185.011 130.785 188.714 125.722 188.714V192.714C133.36 192.714 136.778 186.718 139.221 182.607L135.783 180.563ZM138.688 176.139C137.704 177.384 136.76 178.918 135.783 180.563L139.221 182.607C140.205 180.951 141.028 179.63 141.827 178.618L138.688 176.139ZM141.697 178.767C143.174 177.235 144.368 176.584 145.437 176.584V172.584C142.687 172.584 140.499 174.246 138.817 175.99L141.697 178.767ZM145.437 176.584C146.376 176.584 147.423 177.085 148.698 178.292C149.971 179.496 151.192 181.128 152.524 182.921L155.735 180.535C154.456 178.815 153.023 176.876 151.447 175.386C149.875 173.899 147.881 172.584 145.437 172.584V176.584ZM152.524 182.921C155.688 187.18 159.651 192.714 167.012 192.714V188.714C161.96 188.714 159.134 185.112 155.735 180.536L152.524 182.921ZM167.012 192.714C174.649 192.714 178.067 186.718 180.51 182.607L177.072 180.563C174.428 185.011 172.074 188.714 167.012 188.714V192.714ZM180.51 182.607C181.784 180.464 182.774 178.908 183.755 177.875C184.678 176.902 185.409 176.584 186.189 176.584V172.584C183.957 172.584 182.247 173.653 180.853 175.122C179.516 176.531 178.312 178.476 177.072 180.563L180.51 182.607ZM186.189 176.584C187.196 176.584 188.241 176.29 189.081 175.661L186.686 172.458C186.627 172.502 186.452 172.584 186.189 172.584V176.584ZM189.081 175.661C189.932 175.025 190.586 174.017 190.586 172.792H186.586C186.586 172.668 186.62 172.57 186.654 172.509C186.686 172.451 186.709 172.441 186.686 172.458L189.081 175.661ZM190.586 172.792C190.586 171.568 189.932 170.56 189.081 169.923L186.686 173.127C186.709 173.144 186.686 173.133 186.654 173.076C186.62 173.015 186.586 172.916 186.586 172.792H190.586ZM189.081 169.923C188.241 169.295 187.196 169 186.189 169V173C186.452 173 186.627 173.083 186.686 173.127L189.081 169.923ZM186.189 169C178.551 169 175.133 174.996 172.69 179.108L176.128 181.151C178.772 176.703 181.126 173 186.189 173V169ZM172.69 179.107C171.416 181.25 170.426 182.805 169.445 183.839C168.522 184.813 167.791 185.13 167.012 185.13V189.13C169.243 189.13 170.954 188.061 172.347 186.591C173.684 185.182 174.888 183.237 176.128 181.152L172.69 179.107ZM167.012 185.13C166.073 185.13 165.026 184.629 163.75 183.422C162.478 182.219 161.257 180.586 159.925 178.793L156.714 181.179C157.993 182.899 159.426 184.838 161.002 186.328C162.574 187.815 164.568 189.13 167.012 189.13V185.13ZM159.925 178.794C156.761 174.534 152.798 169 145.437 169V173C150.489 173 153.315 176.602 156.714 181.179L159.925 178.794ZM145.437 169C145.298 169 145.16 169.002 145.023 169.006L145.138 173.004C145.236 173.001 145.336 173 145.437 173V169ZM144.899 173C144.922 173 144.945 173.001 144.967 173.002L145.193 169.008C145.096 169.003 144.998 169 144.899 169V173ZM134.839 181.151C137.483 176.703 139.837 173 144.899 173V169C137.262 169 133.844 174.996 131.401 179.108L134.839 181.151ZM125.722 189.13C127.954 189.13 129.665 188.061 131.058 186.591C132.395 185.182 133.599 183.237 134.839 181.152L131.401 179.107C130.127 181.25 129.137 182.805 128.156 183.839C127.232 184.813 126.501 185.13 125.722 185.13V189.13ZM115.425 181.179C116.703 182.899 118.137 184.838 119.713 186.328C121.284 187.815 123.279 189.13 125.722 189.13V185.13C124.784 185.13 123.737 184.629 122.461 183.422C121.189 182.219 119.968 180.586 118.636 178.793L115.425 181.179ZM104.148 173C109.2 173 112.025 176.602 115.425 181.179L118.636 178.794C115.472 174.534 111.509 169 104.148 169V173ZM92.8738 181.176C96.2751 176.6 99.1004 173 104.148 173V169C96.7919 169 92.8288 174.532 89.6636 178.789L92.8738 181.176ZM92.871 181.18L92.8736 181.176L89.6639 178.789L89.6613 178.793L92.871 181.18ZM92.8677 181.184L92.8714 181.179L89.6608 178.793L89.6571 178.798L92.8677 181.184ZM82.5741 189.13C85.0178 189.13 87.0112 187.816 88.5827 186.33C90.1573 184.841 91.5901 182.903 92.8677 181.184L89.6571 178.798C88.3254 180.59 87.1056 182.222 85.8342 183.424C84.5597 184.629 83.5136 185.13 82.5741 185.13V189.13ZM73.4572 181.151C74.6966 183.237 75.9 185.182 77.2375 186.592C78.6316 188.061 80.3427 189.13 82.5741 189.13V185.13C81.7948 185.13 81.0632 184.812 80.1393 183.839C79.1587 182.805 78.1688 181.25 76.896 179.108L73.4572 181.151ZM63.3971 173C68.4621 173 70.8136 176.703 73.4573 181.151L76.8959 179.108C74.4529 174.997 71.0369 169 63.3971 169V173ZM62.8997 173.127C62.9584 173.083 63.1332 173 63.3971 173V169C62.3896 169 61.3449 169.295 60.5045 169.923L62.8997 173.127ZM63 172.792C63 172.916 62.9657 173.015 62.9319 173.076C62.9 173.133 62.877 173.144 62.8997 173.127L60.5045 169.923C59.6532 170.56 59 171.568 59 172.792H63ZM62.8997 172.458C62.877 172.441 62.9 172.451 62.9319 172.509C62.9657 172.57 63 172.668 63 172.792H59C59 174.017 59.6532 175.025 60.5045 175.661L62.8997 172.458ZM63.3971 172.584C63.1332 172.584 62.9584 172.502 62.8997 172.458L60.5045 175.661C61.3449 176.29 62.3896 176.584 63.3971 176.584V172.584ZM72.5142 180.563C71.2747 178.477 70.0713 176.531 68.7336 175.122C67.3392 173.652 65.6282 172.584 63.3971 172.584V176.584C64.1768 176.584 64.9085 176.902 65.8321 177.875C66.8125 178.908 67.8024 180.463 69.0751 182.606L72.5142 180.563ZM82.5741 188.714C77.5091 188.714 75.1576 185.012 72.514 180.563L69.0753 182.607C71.5184 186.718 74.9343 192.714 82.5741 192.714V188.714ZM93.8486 180.538C90.4473 185.114 87.622 188.714 82.5741 188.714V192.714C89.9305 192.714 93.8936 187.183 97.0588 182.925L93.8486 180.538ZM93.8506 180.536L93.848 180.539L97.0593 182.924L97.0619 182.921L93.8506 180.536ZM93.855 180.53L93.8513 180.535L97.0612 182.922L97.065 182.916L93.855 180.53ZM104.148 172.584C101.705 172.584 99.7112 173.898 98.1397 175.384C96.5651 176.873 95.1323 178.811 93.8547 180.53L97.0653 182.916C98.397 181.124 99.6168 179.493 100.888 178.29C102.163 177.085 103.209 176.584 104.148 176.584V172.584ZM114.445 180.535C113.167 178.815 111.733 176.876 110.158 175.386C108.586 173.899 106.592 172.584 104.148 172.584V176.584C105.087 176.584 106.133 177.085 107.409 178.292C108.682 179.496 109.903 181.128 111.235 182.921L114.445 180.535Z" fill="black" mask="url(#path-6-outside-1_137_1419)"/>
</svg>
