<svg width="249" height="249" viewBox="0 0 249 249" fill="none" xmlns="http://www.w3.org/2000/svg">
<circle cx="124.5" cy="124.5" r="120.5" stroke="black" stroke-width="8"/>
<line x1="92" y1="179" x2="157" y2="179" stroke="black" stroke-width="8" stroke-linecap="round"/>
<path fill-rule="evenodd" clip-rule="evenodd" d="M92.545 111.152C92.9309 110.753 93.2688 110.321 93.5423 109.869C96.6063 104.53 93.3817 97.9942 87.8047 95.8024C76.5818 90.989 67.1948 103.071 69.3406 113.747C72.0487 125.213 84.6143 130.252 94.816 125.973C107.072 120.924 111.237 106.153 105.488 94.7323C100.302 84.1034 87.736 79.0644 76.4097 81.7606C63.8786 85.0905 55.2719 96.607 55.1456 109.409C55.0579 114.971 56.5146 120.467 59.1791 125.165C59.3692 125.616 59.7584 126.184 60.1987 126.827C61.5311 128.772 63.3303 131.397 61.4851 133.513C59.0303 136.328 55.3469 134.497 53.4008 131.418C50.0107 126.056 47.7294 120.202 46.9865 115.565C42.9244 90.2107 66.082 66.2255 91.5803 73.1594C116.229 80.2293 126.27 113 105.832 129.497C96.2503 137.644 82.0322 138.6 71.67 131.004C61.8012 123.77 57.8308 109.861 63.3965 98.3907C68.6753 87.8481 82.2048 82.5952 93.2097 88.7658C104.146 94.5066 107.187 110.768 97.1799 118.983C89.8701 125.003 75.1012 122.52 74.6538 111.573C73.8885 106.796 76.6731 101.877 80.7877 100.272C81.5208 99.9198 82.3165 99.666 83.1607 99.5308C87.8547 98.7788 92.2695 101.974 93.0215 106.668C93.2727 108.236 93.0834 109.773 92.545 111.152Z" fill="black"/>
<path fill-rule="evenodd" clip-rule="evenodd" d="M155.922 109.48C155.843 110.031 155.823 110.579 155.867 111.107C156.515 117.229 162.959 120.632 168.762 119.138C180.676 116.456 181.196 101.165 173.198 93.7756C164.281 86.0747 151.147 89.3604 145.392 98.8084C138.425 110.084 143.711 124.493 155.065 130.373C165.499 135.942 178.632 132.656 186.226 123.831C194.425 113.786 194.644 99.4106 187.24 88.9658C184.05 84.4095 179.647 80.8108 174.734 78.5674C174.316 78.3137 173.667 78.0817 172.934 77.8194C170.714 77.0253 167.717 75.9531 167.971 73.1573C168.31 69.4378 172.367 68.7615 175.748 70.1141C181.639 72.4702 186.919 75.8748 190.24 79.1954C208.397 97.3522 203.701 130.36 178.98 139.694C154.867 148.419 127.519 127.76 134.402 102.413C137.387 90.1953 148.344 81.0845 161.192 81.1618C173.428 81.2355 184.8 90.1747 187.017 102.73C188.922 114.365 181.042 126.553 168.51 128.007C156.285 129.769 144.286 118.379 147.576 105.857C149.968 96.6947 163.387 90.0459 170.168 98.6516C173.584 102.067 174.216 107.674 171.836 111.387C171.447 112.108 170.948 112.786 170.339 113.395C166.978 116.757 161.528 116.757 158.166 113.395C157.043 112.272 156.295 110.915 155.922 109.48Z" fill="black"/>
</svg>
