<svg width="249" height="249" viewBox="0 0 249 249" fill="none" xmlns="http://www.w3.org/2000/svg">
<circle cx="124.5" cy="124.5" r="120.5" stroke="black" stroke-width="8"/>
<path d="M92.7636 184.17C109.299 172.938 125.796 164.907 157.801 164.967" stroke="black" stroke-width="8" stroke-linecap="round"/>
<path fill-rule="evenodd" clip-rule="evenodd" d="M88.545 110.152C88.9309 109.753 89.2688 109.321 89.5423 108.869C92.6063 103.53 89.3817 96.9942 83.8047 94.8024C72.5818 89.989 63.1948 102.071 65.3406 112.747C68.0487 124.213 80.6143 129.252 90.816 124.973C103.072 119.924 107.237 105.153 101.488 93.7323C96.3015 83.1034 83.736 78.0644 72.4097 80.7606C59.8786 84.0905 51.2719 95.607 51.1456 108.409C51.0579 113.971 52.5146 119.467 55.1791 124.165C55.3692 124.616 55.7584 125.184 56.1987 125.827C57.5311 127.772 59.3303 130.397 57.4851 132.513C55.0303 135.328 51.3469 133.497 49.4008 130.418C46.0107 125.056 43.7294 119.202 42.9865 114.565C38.9244 89.2107 62.082 65.2255 87.5803 72.1594C112.229 79.2293 122.27 112 101.832 128.497C92.2503 136.644 78.0322 137.6 67.67 130.004C57.8012 122.77 53.8308 108.861 59.3965 97.3907C64.6753 86.8481 78.2048 81.5952 89.2097 87.7658C100.146 93.5066 103.187 109.768 93.1799 117.983C85.8701 124.003 71.1012 121.52 70.6538 110.573C69.8885 105.796 72.6731 100.877 76.7877 99.2723C77.5208 98.9198 78.3165 98.666 79.1607 98.5308C83.8547 97.7788 88.2695 100.974 89.0215 105.668C89.2727 107.236 89.0834 108.773 88.545 110.152Z" fill="black"/>
<path fill-rule="evenodd" clip-rule="evenodd" d="M151.922 108.48C151.843 109.031 151.823 109.579 151.867 110.107C152.515 116.229 158.959 119.632 164.762 118.138C176.676 115.456 177.196 100.165 169.198 92.7756C160.281 85.0747 147.147 88.3604 141.392 97.8084C134.425 109.084 139.711 123.493 151.065 129.373C161.499 134.942 174.632 131.656 182.226 122.831C190.425 112.786 190.644 98.4106 183.24 87.9658C180.05 83.4095 175.647 79.8108 170.734 77.5674C170.316 77.3137 169.667 77.0817 168.934 76.8194C166.714 76.0253 163.717 74.9531 163.971 72.1573C164.31 68.4378 168.367 67.7615 171.748 69.1141C177.639 71.4702 182.919 74.8748 186.24 78.1954C204.397 96.3522 199.701 129.36 174.98 138.694C150.867 147.419 123.519 126.76 130.402 101.413C133.387 89.1953 144.344 80.0845 157.192 80.1618C169.428 80.2355 180.8 89.1747 183.017 101.73C184.922 113.365 177.042 125.553 164.51 127.007C152.285 128.769 140.286 117.379 143.576 104.857C145.968 95.6947 159.387 89.0459 166.168 97.6516C169.584 101.067 170.216 106.674 167.836 110.387C167.447 111.108 166.948 111.786 166.339 112.395C162.978 115.757 157.528 115.757 154.166 112.395C153.043 111.272 152.295 109.915 151.922 108.48Z" fill="black"/>
</svg>
