<svg width="249" height="249" viewBox="0 0 249 249" fill="none" xmlns="http://www.w3.org/2000/svg">
<circle cx="124.5" cy="124.5" r="120.5" stroke="black" stroke-width="8"/>
<path fill-rule="evenodd" clip-rule="evenodd" d="M88.545 110.152C88.9309 109.753 89.2688 109.321 89.5423 108.869C92.6063 103.53 89.3817 96.9942 83.8047 94.8024C72.5818 89.989 63.1948 102.071 65.3406 112.747C68.0487 124.213 80.6143 129.252 90.816 124.973C103.072 119.924 107.237 105.153 101.488 93.7323C96.3015 83.1034 83.736 78.0644 72.4097 80.7606C59.8786 84.0905 51.2719 95.607 51.1456 108.409C51.0579 113.971 52.5146 119.467 55.1791 124.165C55.3692 124.616 55.7584 125.184 56.1987 125.827C57.5311 127.772 59.3303 130.397 57.4851 132.513C55.0303 135.328 51.3469 133.497 49.4008 130.418C46.0107 125.056 43.7294 119.202 42.9865 114.565C38.9244 89.2107 62.082 65.2255 87.5803 72.1594C112.229 79.2293 122.27 112 101.832 128.497C92.2503 136.644 78.0322 137.6 67.67 130.004C57.8012 122.77 53.8308 108.861 59.3965 97.3907C64.6753 86.8481 78.2048 81.5952 89.2097 87.7658C100.146 93.5066 103.187 109.768 93.1799 117.983C85.8701 124.003 71.1012 121.52 70.6538 110.573C69.8885 105.796 72.6731 100.877 76.7877 99.2723C77.5208 98.9198 78.3165 98.666 79.1607 98.5308C83.8547 97.7788 88.2695 100.974 89.0215 105.668C89.2727 107.236 89.0834 108.773 88.545 110.152Z" fill="black"/>
<path fill-rule="evenodd" clip-rule="evenodd" d="M151.922 108.48C151.843 109.031 151.823 109.579 151.867 110.107C152.515 116.229 158.959 119.632 164.762 118.138C176.676 115.456 177.196 100.165 169.198 92.7756C160.281 85.0747 147.147 88.3604 141.392 97.8084C134.425 109.084 139.711 123.493 151.065 129.373C161.499 134.942 174.632 131.656 182.226 122.831C190.425 112.786 190.644 98.4106 183.24 87.9658C180.05 83.4095 175.647 79.8108 170.734 77.5674C170.316 77.3137 169.667 77.0817 168.934 76.8194C166.714 76.0253 163.717 74.9531 163.971 72.1573C164.31 68.4378 168.367 67.7615 171.748 69.1141C177.639 71.4702 182.919 74.8748 186.24 78.1954C204.397 96.3522 199.701 129.36 174.98 138.694C150.867 147.419 123.519 126.76 130.402 101.413C133.387 89.1953 144.344 80.0845 157.192 80.1618C169.428 80.2355 180.8 89.1747 183.017 101.73C184.922 113.365 177.042 125.553 164.51 127.007C152.285 128.769 140.286 117.379 143.576 104.857C145.968 95.6947 159.387 89.0459 166.168 97.6516C169.584 101.067 170.216 106.674 167.836 110.387C167.447 111.108 166.948 111.786 166.339 112.395C162.978 115.757 157.528 115.757 154.166 112.395C153.043 111.272 152.295 109.915 151.922 108.48Z" fill="black"/>
<mask id="path-4-outside-1_137_1433" maskUnits="userSpaceOnUse" x="59" y="171" width="132" height="24" fill="black">
<rect fill="white" x="59" y="171" width="132" height="24"/>
<path fill-rule="evenodd" clip-rule="evenodd" d="M112.84 183.728C116.122 188.146 119.516 192.714 125.722 192.714C132.072 192.714 134.959 187.865 137.502 183.585C138.483 181.935 139.366 180.507 140.257 179.379C141.837 177.74 143.528 176.584 145.437 176.584C148.82 176.584 151.519 180.215 154.129 183.728C157.411 188.146 160.805 192.714 167.012 192.714C173.362 192.714 176.248 187.865 178.791 183.585C181.306 179.355 183.178 176.584 186.189 176.584C186.824 176.584 187.434 176.396 187.884 176.059C188.333 175.723 188.586 175.268 188.586 174.792C188.586 174.317 188.333 173.861 187.884 173.525C187.434 173.189 186.824 173 186.189 173C179.839 173 176.952 177.85 174.409 182.13C171.894 186.357 170.022 189.13 167.012 189.13C163.629 189.13 160.93 185.499 158.32 181.986C155.038 177.568 151.644 173 145.437 173C145.317 173 145.198 173.002 145.08 173.005C145.02 173.002 144.96 173 144.899 173C138.549 173 135.663 177.85 133.12 182.13C130.605 186.357 128.733 189.13 125.722 189.13C122.34 189.13 119.641 185.499 117.03 181.986C113.749 177.568 110.354 173 104.148 173C97.9461 173 94.552 177.566 91.2687 181.983L91.2661 181.986L91.2624 181.991C88.6531 185.502 85.9573 189.13 82.5741 189.13C79.5633 189.13 77.6888 186.357 75.1766 182.13C72.6332 177.85 69.7495 173 63.3971 173C62.7614 173 62.1516 173.189 61.7021 173.525C61.2526 173.861 61 174.317 61 174.792C61 175.268 61.2526 175.723 61.7021 176.059C62.1516 176.396 62.7614 176.584 63.3971 176.584C66.4079 176.584 68.2825 179.355 70.7947 183.585C73.338 187.865 76.2217 192.714 82.5741 192.714C88.7762 192.714 92.1704 188.148 95.4537 183.732L95.4563 183.728L95.46 183.723C98.0693 180.212 100.765 176.584 104.148 176.584C107.531 176.584 110.23 180.215 112.84 183.728Z"/>
</mask>
<path fill-rule="evenodd" clip-rule="evenodd" d="M112.84 183.728C116.122 188.146 119.516 192.714 125.722 192.714C132.072 192.714 134.959 187.865 137.502 183.585C138.483 181.935 139.366 180.507 140.257 179.379C141.837 177.74 143.528 176.584 145.437 176.584C148.82 176.584 151.519 180.215 154.129 183.728C157.411 188.146 160.805 192.714 167.012 192.714C173.362 192.714 176.248 187.865 178.791 183.585C181.306 179.355 183.178 176.584 186.189 176.584C186.824 176.584 187.434 176.396 187.884 176.059C188.333 175.723 188.586 175.268 188.586 174.792C188.586 174.317 188.333 173.861 187.884 173.525C187.434 173.189 186.824 173 186.189 173C179.839 173 176.952 177.85 174.409 182.13C171.894 186.357 170.022 189.13 167.012 189.13C163.629 189.13 160.93 185.499 158.32 181.986C155.038 177.568 151.644 173 145.437 173C145.317 173 145.198 173.002 145.08 173.005C145.02 173.002 144.96 173 144.899 173C138.549 173 135.663 177.85 133.12 182.13C130.605 186.357 128.733 189.13 125.722 189.13C122.34 189.13 119.641 185.499 117.03 181.986C113.749 177.568 110.354 173 104.148 173C97.9461 173 94.552 177.566 91.2687 181.983L91.2661 181.986L91.2624 181.991C88.6531 185.502 85.9573 189.13 82.5741 189.13C79.5633 189.13 77.6888 186.357 75.1766 182.13C72.6332 177.85 69.7495 173 63.3971 173C62.7614 173 62.1516 173.189 61.7021 173.525C61.2526 173.861 61 174.317 61 174.792C61 175.268 61.2526 175.723 61.7021 176.059C62.1516 176.396 62.7614 176.584 63.3971 176.584C66.4079 176.584 68.2825 179.355 70.7947 183.585C73.338 187.865 76.2217 192.714 82.5741 192.714C88.7762 192.714 92.1704 188.148 95.4537 183.732L95.4563 183.728L95.46 183.723C98.0693 180.212 100.765 176.584 104.148 176.584C107.531 176.584 110.23 180.215 112.84 183.728Z" fill="#292F33"/>
<path d="M112.84 183.728L114.446 182.536L114.445 182.535L112.84 183.728ZM137.502 183.585L135.783 182.563L135.783 182.563L137.502 183.585ZM140.257 179.379L138.817 177.99L138.749 178.061L138.688 178.139L140.257 179.379ZM154.129 183.728L155.735 182.536L155.735 182.535L154.129 183.728ZM178.791 183.585L177.072 182.563L177.072 182.563L178.791 183.585ZM187.884 176.059L186.686 174.458L186.686 174.458L187.884 176.059ZM187.884 173.525L186.686 175.127L186.686 175.127L187.884 173.525ZM174.409 182.13L176.128 183.152L176.128 183.151L174.409 182.13ZM158.32 181.986L156.714 183.179L156.714 183.179L158.32 181.986ZM145.08 173.005L144.967 175.002L145.052 175.007L145.138 175.004L145.08 173.005ZM133.12 182.13L134.839 183.152L134.839 183.151L133.12 182.13ZM117.03 181.986L115.425 183.179L115.425 183.179L117.03 181.986ZM91.2687 181.983L92.8736 183.176L92.8738 183.176L91.2687 181.983ZM91.2661 181.986L89.6613 180.793L89.6608 180.793L91.2661 181.986ZM91.2624 181.991L92.8677 183.184L92.8677 183.184L91.2624 181.991ZM75.1766 182.13L76.896 181.108L76.8959 181.108L75.1766 182.13ZM61.7021 173.525L62.8997 175.127L62.8997 175.127L61.7021 173.525ZM70.7947 183.585L69.0751 184.606L69.0753 184.607L70.7947 183.585ZM95.4537 183.732L97.0588 184.925L97.0593 184.924L95.4537 183.732ZM95.4563 183.728L93.8513 182.535L93.8506 182.536L95.4563 183.728ZM95.46 183.723L97.065 184.916L97.0653 184.916L95.46 183.723ZM125.722 190.714C120.671 190.714 117.845 187.112 114.446 182.536L111.235 184.921C114.399 189.18 118.362 194.714 125.722 194.714V190.714ZM135.783 182.563C133.139 187.011 130.785 190.714 125.722 190.714V194.714C133.36 194.714 136.778 188.718 139.221 184.607L135.783 182.563ZM138.688 178.139C137.704 179.384 136.76 180.918 135.783 182.563L139.221 184.607C140.205 182.951 141.028 181.63 141.827 180.618L138.688 178.139ZM141.697 180.767C143.174 179.235 144.368 178.584 145.437 178.584V174.584C142.687 174.584 140.499 176.246 138.817 177.99L141.697 180.767ZM145.437 178.584C146.376 178.584 147.423 179.085 148.698 180.292C149.971 181.496 151.192 183.128 152.524 184.921L155.735 182.535C154.456 180.815 153.023 178.876 151.447 177.386C149.875 175.899 147.881 174.584 145.437 174.584V178.584ZM152.524 184.921C155.688 189.18 159.651 194.714 167.012 194.714V190.714C161.96 190.714 159.134 187.112 155.735 182.536L152.524 184.921ZM167.012 194.714C174.649 194.714 178.067 188.718 180.51 184.607L177.072 182.563C174.428 187.011 172.074 190.714 167.012 190.714V194.714ZM180.51 184.607C181.784 182.464 182.774 180.908 183.755 179.875C184.678 178.902 185.409 178.584 186.189 178.584V174.584C183.957 174.584 182.247 175.653 180.853 177.122C179.516 178.531 178.312 180.476 177.072 182.563L180.51 184.607ZM186.189 178.584C187.196 178.584 188.241 178.29 189.081 177.661L186.686 174.458C186.627 174.502 186.452 174.584 186.189 174.584V178.584ZM189.081 177.661C189.932 177.025 190.586 176.017 190.586 174.792H186.586C186.586 174.668 186.62 174.57 186.654 174.509C186.686 174.451 186.709 174.441 186.686 174.458L189.081 177.661ZM190.586 174.792C190.586 173.568 189.932 172.56 189.081 171.923L186.686 175.127C186.709 175.144 186.686 175.133 186.654 175.076C186.62 175.015 186.586 174.916 186.586 174.792H190.586ZM189.081 171.923C188.241 171.295 187.196 171 186.189 171V175C186.452 175 186.627 175.083 186.686 175.127L189.081 171.923ZM186.189 171C178.551 171 175.133 176.996 172.69 181.108L176.128 183.151C178.772 178.703 181.126 175 186.189 175V171ZM172.69 181.107C171.416 183.25 170.426 184.805 169.445 185.839C168.522 186.813 167.791 187.13 167.012 187.13V191.13C169.243 191.13 170.954 190.061 172.347 188.591C173.684 187.182 174.888 185.237 176.128 183.152L172.69 181.107ZM167.012 187.13C166.073 187.13 165.026 186.629 163.75 185.422C162.478 184.219 161.257 182.586 159.925 180.793L156.714 183.179C157.993 184.899 159.426 186.838 161.002 188.328C162.574 189.815 164.568 191.13 167.012 191.13V187.13ZM159.925 180.794C156.761 176.534 152.798 171 145.437 171V175C150.489 175 153.315 178.602 156.714 183.179L159.925 180.794ZM145.437 171C145.298 171 145.16 171.002 145.023 171.006L145.138 175.004C145.236 175.001 145.336 175 145.437 175V171ZM144.899 175C144.922 175 144.945 175.001 144.967 175.002L145.193 171.008C145.096 171.003 144.998 171 144.899 171V175ZM134.839 183.151C137.483 178.703 139.837 175 144.899 175V171C137.262 171 133.844 176.996 131.401 181.108L134.839 183.151ZM125.722 191.13C127.954 191.13 129.665 190.061 131.058 188.591C132.395 187.182 133.599 185.237 134.839 183.152L131.401 181.107C130.127 183.25 129.137 184.805 128.156 185.839C127.232 186.813 126.501 187.13 125.722 187.13V191.13ZM115.425 183.179C116.703 184.899 118.137 186.838 119.713 188.328C121.284 189.815 123.279 191.13 125.722 191.13V187.13C124.784 187.13 123.737 186.629 122.461 185.422C121.189 184.219 119.968 182.586 118.636 180.793L115.425 183.179ZM104.148 175C109.2 175 112.025 178.602 115.425 183.179L118.636 180.794C115.472 176.534 111.509 171 104.148 171V175ZM92.8738 183.176C96.2751 178.6 99.1004 175 104.148 175V171C96.7919 171 92.8288 176.532 89.6636 180.789L92.8738 183.176ZM92.871 183.18L92.8736 183.176L89.6639 180.789L89.6613 180.793L92.871 183.18ZM92.8677 183.184L92.8714 183.179L89.6608 180.793L89.6571 180.798L92.8677 183.184ZM82.5741 191.13C85.0178 191.13 87.0112 189.816 88.5827 188.33C90.1573 186.841 91.5901 184.903 92.8677 183.184L89.6571 180.798C88.3254 182.59 87.1056 184.222 85.8342 185.424C84.5597 186.629 83.5136 187.13 82.5741 187.13V191.13ZM73.4572 183.151C74.6966 185.237 75.9 187.182 77.2375 188.592C78.6316 190.061 80.3427 191.13 82.5741 191.13V187.13C81.7948 187.13 81.0632 186.812 80.1393 185.839C79.1587 184.805 78.1688 183.25 76.896 181.108L73.4572 183.151ZM63.3971 175C68.4621 175 70.8136 178.703 73.4573 183.151L76.8959 181.108C74.4529 176.997 71.0369 171 63.3971 171V175ZM62.8997 175.127C62.9584 175.083 63.1332 175 63.3971 175V171C62.3896 171 61.3449 171.295 60.5045 171.923L62.8997 175.127ZM63 174.792C63 174.916 62.9657 175.015 62.9319 175.076C62.9 175.133 62.877 175.144 62.8997 175.127L60.5045 171.923C59.6532 172.56 59 173.568 59 174.792H63ZM62.8997 174.458C62.877 174.441 62.9 174.451 62.9319 174.509C62.9657 174.57 63 174.668 63 174.792H59C59 176.017 59.6532 177.025 60.5045 177.661L62.8997 174.458ZM63.3971 174.584C63.1332 174.584 62.9584 174.502 62.8997 174.458L60.5045 177.661C61.3449 178.29 62.3896 178.584 63.3971 178.584V174.584ZM72.5142 182.563C71.2747 180.477 70.0713 178.531 68.7336 177.122C67.3392 175.652 65.6282 174.584 63.3971 174.584V178.584C64.1768 178.584 64.9085 178.902 65.8321 179.875C66.8125 180.908 67.8024 182.463 69.0751 184.606L72.5142 182.563ZM82.5741 190.714C77.5091 190.714 75.1576 187.012 72.514 182.563L69.0753 184.607C71.5184 188.718 74.9343 194.714 82.5741 194.714V190.714ZM93.8486 182.538C90.4473 187.114 87.622 190.714 82.5741 190.714V194.714C89.9305 194.714 93.8936 189.183 97.0588 184.925L93.8486 182.538ZM93.8506 182.536L93.848 182.539L97.0593 184.924L97.0619 184.921L93.8506 182.536ZM93.855 182.53L93.8513 182.535L97.0612 184.922L97.065 184.916L93.855 182.53ZM104.148 174.584C101.705 174.584 99.7112 175.898 98.1397 177.384C96.5651 178.873 95.1323 180.811 93.8547 182.53L97.0653 184.916C98.397 183.124 99.6168 181.493 100.888 180.29C102.163 179.085 103.209 178.584 104.148 178.584V174.584ZM114.445 182.535C113.167 180.815 111.733 178.876 110.158 177.386C108.586 175.899 106.592 174.584 104.148 174.584V178.584C105.087 178.584 106.133 179.085 107.409 180.292C108.682 181.496 109.903 183.128 111.235 184.921L114.445 182.535Z" fill="black" mask="url(#path-4-outside-1_137_1433)"/>
</svg>
