<svg width="249" height="249" viewBox="0 0 249 249" fill="none" xmlns="http://www.w3.org/2000/svg">
<circle cx="124.5" cy="124.5" r="120.5" stroke="black" stroke-width="8"/>
<path d="M122.5 153C133.449 153 140.552 161.128 145.15 170.728C147.397 175.42 148.88 180.155 149.8 183.744C149.912 184.182 150.016 184.601 150.111 185H94.8886C94.984 184.601 95.0876 184.182 95.1999 183.744C96.1205 180.155 97.6028 175.42 99.8502 170.728C104.448 161.128 111.551 153 122.5 153Z" fill="#737373" stroke="black" stroke-width="8"/>
<path d="M114.685 65.9341C104.685 92.4341 58.28 100.004 36.1826 102.434" stroke="black" stroke-width="8" stroke-linecap="round"/>
<path d="M129.896 65.9341C139.896 92.4341 186.3 100.004 208.397 102.434" stroke="black" stroke-width="8" stroke-linecap="round"/>
<path fill-rule="evenodd" clip-rule="evenodd" d="M158.54 89.4928L146.058 83.9924C138.853 87.5917 133.379 94.321 131.401 102.413C124.518 127.761 151.867 148.42 175.98 139.694C193.609 133.038 201.055 114.341 197.29 97.5774L187.963 96.191C191.178 105.411 189.656 115.953 183.226 123.832C175.631 132.657 162.498 135.942 152.064 130.374C140.711 124.493 135.424 110.085 142.392 98.8088C145.904 93.042 152.166 89.571 158.54 89.4928ZM181.416 95.2178L169.872 93.5018C169.981 93.5916 170.09 93.683 170.197 93.776C178.195 101.165 177.675 116.457 165.762 119.138C159.959 120.633 153.515 117.229 152.866 111.107C152.822 110.58 152.843 110.031 152.922 109.481C153.294 110.915 154.042 112.272 155.166 113.396C158.527 116.757 163.977 116.757 167.339 113.396C167.948 112.787 168.447 112.109 168.835 111.387C171.216 107.675 170.584 102.068 167.168 98.652C160.386 90.0463 146.967 96.6951 144.575 105.857C141.286 118.379 153.284 129.769 165.509 128.007C178.042 126.553 185.922 114.365 184.016 102.73C183.542 100.043 182.648 97.522 181.416 95.2178Z" fill="black"/>
<path fill-rule="evenodd" clip-rule="evenodd" d="M63.0498 96.0799L78.9996 93.9995L89.9788 90.0398C90.1373 90.1201 90.2952 90.2027 90.4526 90.2876C101.35 95.7852 104.303 111.503 94.2623 119.503C86.9272 125.365 72.1836 123.04 71.7935 112.451C71.0537 107.833 73.8616 103.059 77.981 101.485C78.7154 101.14 79.512 100.89 80.3564 100.755C85.0503 100.003 89.4448 103.072 90.1718 107.61C90.4146 109.125 90.2175 110.613 89.6724 111.95C90.06 111.562 90.3996 111.143 90.6752 110.704C93.7644 105.522 90.5765 99.2155 85.0155 97.1239C73.827 92.5252 64.385 104.264 66.4735 114.581C69.1197 125.662 81.6485 130.472 91.864 126.279C104.136 121.33 108.375 107.016 102.69 95.9965C101.06 92.735 98.6808 90.0242 95.83 87.9295L104.76 84.7088C116.567 97.2401 118.056 117.719 102.853 129.631C93.2364 137.563 79.0252 138.561 68.7111 131.266C58.8882 124.318 54.9935 110.882 60.6142 99.7551C61.2983 98.4422 62.1178 97.2129 63.0498 96.0799ZM56.0843 96.9885L46.0586 98.2962C43.9047 103.948 43.1202 110.163 44.1285 116.457C44.8467 120.94 47.0956 126.592 50.455 131.762C52.3834 134.73 56.0543 136.483 58.5216 133.747C60.3763 131.69 58.5923 129.159 57.2711 127.285L57.271 127.285C56.8346 126.665 56.4486 126.118 56.261 125.682C53.6232 121.151 52.1962 115.84 52.3128 110.459C52.3876 105.659 53.7337 101.038 56.0843 96.9885Z" fill="black"/>
<path d="M74.0031 162.496C74.6677 163.832 75 165.25 75 166.75C75 167.781 74.8682 168.777 74.6047 169.738C74.3411 170.699 73.9745 171.596 73.5047 172.428C73.0349 173.26 72.462 174.016 71.7859 174.695C71.1099 175.375 70.3651 175.961 69.5516 176.453C68.738 176.945 67.8615 177.326 66.9219 177.596C65.9823 177.865 65.0083 178 64 178C62.9917 178 62.0177 177.865 61.0781 177.596C60.1385 177.326 59.262 176.951 58.4484 176.471C57.6349 175.99 56.8958 175.404 56.2313 174.713C55.5667 174.021 54.9938 173.26 54.5125 172.428C54.0313 171.596 53.6589 170.699 53.3953 169.738C53.1318 168.777 53 167.781 53 166.75C53 165.262 53.3208 163.85 53.9625 162.514L63.9141 142L74.0031 162.496Z" fill="black"/>
<path d="M192.003 164.496C192.668 165.832 193 167.25 193 168.75C193 169.781 192.868 170.777 192.605 171.738C192.341 172.699 191.974 173.596 191.505 174.428C191.035 175.26 190.462 176.016 189.786 176.695C189.11 177.375 188.365 177.961 187.552 178.453C186.738 178.945 185.861 179.326 184.922 179.596C183.982 179.865 183.008 180 182 180C180.992 180 180.018 179.865 179.078 179.596C178.139 179.326 177.262 178.951 176.448 178.471C175.635 177.99 174.896 177.404 174.231 176.713C173.567 176.021 172.994 175.26 172.513 174.428C172.031 173.596 171.659 172.699 171.395 171.738C171.132 170.777 171 169.781 171 168.75C171 167.262 171.321 165.85 171.963 164.514L181.914 144L192.003 164.496Z" fill="black"/>
</svg>
