<svg width="249" height="249" viewBox="0 0 249 249" fill="none" xmlns="http://www.w3.org/2000/svg">
<circle cx="124.5" cy="124.5" r="120.5" stroke="black" stroke-width="8"/>
<path d="M112 109C107.106 117.534 97.6731 124 80 124C62.3269 124 52.1412 117.276 48 109" stroke="black" stroke-width="8" stroke-linecap="round"/>
<path d="M206 109C201.106 117.534 191.673 124 174 124C156.327 124 146.141 117.276 142 109" stroke="black" stroke-width="8" stroke-linecap="round"/>
<mask id="path-4-outside-1_137_1447" maskUnits="userSpaceOnUse" x="59" y="161" width="132" height="24" fill="black">
<rect fill="white" x="59" y="161" width="132" height="24"/>
<path fill-rule="evenodd" clip-rule="evenodd" d="M112.84 173.728C116.122 178.146 119.516 182.714 125.722 182.714C132.072 182.714 134.959 177.865 137.502 173.585C138.483 171.935 139.366 170.507 140.257 169.379C141.837 167.74 143.528 166.584 145.437 166.584C148.82 166.584 151.519 170.215 154.129 173.728C157.411 178.146 160.805 182.714 167.012 182.714C173.362 182.714 176.248 177.865 178.791 173.585C181.306 169.355 183.178 166.584 186.189 166.584C186.824 166.584 187.434 166.396 187.884 166.059C188.333 165.723 188.586 165.268 188.586 164.792C188.586 164.317 188.333 163.861 187.884 163.525C187.434 163.189 186.824 163 186.189 163C179.839 163 176.952 167.85 174.409 172.13C171.894 176.357 170.022 179.13 167.012 179.13C163.629 179.13 160.93 175.499 158.32 171.986C155.038 167.568 151.644 163 145.437 163C145.317 163 145.198 163.002 145.08 163.005C145.02 163.002 144.96 163 144.899 163C138.549 163 135.663 167.85 133.12 172.13C130.605 176.357 128.733 179.13 125.722 179.13C122.34 179.13 119.641 175.499 117.03 171.986C113.749 167.568 110.354 163 104.148 163C97.9461 163 94.552 167.566 91.2687 171.983L91.2661 171.986L91.2624 171.991C88.6531 175.502 85.9573 179.13 82.5741 179.13C79.5633 179.13 77.6888 176.357 75.1766 172.13C72.6332 167.85 69.7495 163 63.3971 163C62.7614 163 62.1516 163.189 61.7021 163.525C61.2526 163.861 61 164.317 61 164.792C61 165.268 61.2526 165.723 61.7021 166.059C62.1516 166.396 62.7614 166.584 63.3971 166.584C66.4079 166.584 68.2825 169.355 70.7947 173.585C73.338 177.865 76.2217 182.714 82.5741 182.714C88.7762 182.714 92.1704 178.148 95.4537 173.732L95.4563 173.728L95.46 173.723C98.0693 170.212 100.765 166.584 104.148 166.584C107.531 166.584 110.23 170.215 112.84 173.728Z"/>
</mask>
<path fill-rule="evenodd" clip-rule="evenodd" d="M112.84 173.728C116.122 178.146 119.516 182.714 125.722 182.714C132.072 182.714 134.959 177.865 137.502 173.585C138.483 171.935 139.366 170.507 140.257 169.379C141.837 167.74 143.528 166.584 145.437 166.584C148.82 166.584 151.519 170.215 154.129 173.728C157.411 178.146 160.805 182.714 167.012 182.714C173.362 182.714 176.248 177.865 178.791 173.585C181.306 169.355 183.178 166.584 186.189 166.584C186.824 166.584 187.434 166.396 187.884 166.059C188.333 165.723 188.586 165.268 188.586 164.792C188.586 164.317 188.333 163.861 187.884 163.525C187.434 163.189 186.824 163 186.189 163C179.839 163 176.952 167.85 174.409 172.13C171.894 176.357 170.022 179.13 167.012 179.13C163.629 179.13 160.93 175.499 158.32 171.986C155.038 167.568 151.644 163 145.437 163C145.317 163 145.198 163.002 145.08 163.005C145.02 163.002 144.96 163 144.899 163C138.549 163 135.663 167.85 133.12 172.13C130.605 176.357 128.733 179.13 125.722 179.13C122.34 179.13 119.641 175.499 117.03 171.986C113.749 167.568 110.354 163 104.148 163C97.9461 163 94.552 167.566 91.2687 171.983L91.2661 171.986L91.2624 171.991C88.6531 175.502 85.9573 179.13 82.5741 179.13C79.5633 179.13 77.6888 176.357 75.1766 172.13C72.6332 167.85 69.7495 163 63.3971 163C62.7614 163 62.1516 163.189 61.7021 163.525C61.2526 163.861 61 164.317 61 164.792C61 165.268 61.2526 165.723 61.7021 166.059C62.1516 166.396 62.7614 166.584 63.3971 166.584C66.4079 166.584 68.2825 169.355 70.7947 173.585C73.338 177.865 76.2217 182.714 82.5741 182.714C88.7762 182.714 92.1704 178.148 95.4537 173.732L95.4563 173.728L95.46 173.723C98.0693 170.212 100.765 166.584 104.148 166.584C107.531 166.584 110.23 170.215 112.84 173.728Z" fill="#292F33"/>
<path d="M112.84 173.728L114.446 172.536L114.445 172.535L112.84 173.728ZM137.502 173.585L135.783 172.563L135.783 172.563L137.502 173.585ZM140.257 169.379L138.817 167.99L138.749 168.061L138.688 168.139L140.257 169.379ZM154.129 173.728L155.735 172.536L155.735 172.535L154.129 173.728ZM178.791 173.585L177.072 172.563L177.072 172.563L178.791 173.585ZM187.884 166.059L186.686 164.458L186.686 164.458L187.884 166.059ZM187.884 163.525L186.686 165.127L186.686 165.127L187.884 163.525ZM174.409 172.13L176.128 173.152L176.128 173.151L174.409 172.13ZM158.32 171.986L156.714 173.179L156.714 173.179L158.32 171.986ZM145.08 163.005L144.967 165.002L145.052 165.007L145.138 165.004L145.08 163.005ZM133.12 172.13L134.839 173.152L134.839 173.151L133.12 172.13ZM117.03 171.986L115.425 173.179L115.425 173.179L117.03 171.986ZM91.2687 171.983L92.8736 173.176L92.8738 173.176L91.2687 171.983ZM91.2661 171.986L89.6613 170.793L89.6608 170.793L91.2661 171.986ZM91.2624 171.991L92.8677 173.184L92.8677 173.184L91.2624 171.991ZM75.1766 172.13L76.896 171.108L76.8959 171.108L75.1766 172.13ZM61.7021 163.525L62.8997 165.127L62.8997 165.127L61.7021 163.525ZM70.7947 173.585L69.0751 174.606L69.0753 174.607L70.7947 173.585ZM95.4537 173.732L97.0588 174.925L97.0593 174.924L95.4537 173.732ZM95.4563 173.728L93.8513 172.535L93.8506 172.536L95.4563 173.728ZM95.46 173.723L97.065 174.916L97.0653 174.916L95.46 173.723ZM125.722 180.714C120.671 180.714 117.845 177.112 114.446 172.536L111.235 174.921C114.399 179.18 118.362 184.714 125.722 184.714V180.714ZM135.783 172.563C133.139 177.011 130.785 180.714 125.722 180.714V184.714C133.36 184.714 136.778 178.718 139.221 174.607L135.783 172.563ZM138.688 168.139C137.704 169.384 136.76 170.918 135.783 172.563L139.221 174.607C140.205 172.951 141.028 171.63 141.827 170.618L138.688 168.139ZM141.697 170.767C143.174 169.235 144.368 168.584 145.437 168.584V164.584C142.687 164.584 140.499 166.246 138.817 167.99L141.697 170.767ZM145.437 168.584C146.376 168.584 147.423 169.085 148.698 170.292C149.971 171.496 151.192 173.128 152.524 174.921L155.735 172.535C154.456 170.815 153.023 168.876 151.447 167.386C149.875 165.899 147.881 164.584 145.437 164.584V168.584ZM152.524 174.921C155.688 179.18 159.651 184.714 167.012 184.714V180.714C161.96 180.714 159.134 177.112 155.735 172.536L152.524 174.921ZM167.012 184.714C174.649 184.714 178.067 178.718 180.51 174.607L177.072 172.563C174.428 177.011 172.074 180.714 167.012 180.714V184.714ZM180.51 174.607C181.784 172.464 182.774 170.908 183.755 169.875C184.678 168.902 185.409 168.584 186.189 168.584V164.584C183.957 164.584 182.247 165.653 180.853 167.122C179.516 168.531 178.312 170.476 177.072 172.563L180.51 174.607ZM186.189 168.584C187.196 168.584 188.241 168.29 189.081 167.661L186.686 164.458C186.627 164.502 186.452 164.584 186.189 164.584V168.584ZM189.081 167.661C189.932 167.025 190.586 166.017 190.586 164.792H186.586C186.586 164.668 186.62 164.57 186.654 164.509C186.686 164.451 186.709 164.441 186.686 164.458L189.081 167.661ZM190.586 164.792C190.586 163.568 189.932 162.56 189.081 161.923L186.686 165.127C186.709 165.144 186.686 165.133 186.654 165.076C186.62 165.015 186.586 164.916 186.586 164.792H190.586ZM189.081 161.923C188.241 161.295 187.196 161 186.189 161V165C186.452 165 186.627 165.083 186.686 165.127L189.081 161.923ZM186.189 161C178.551 161 175.133 166.996 172.69 171.108L176.128 173.151C178.772 168.703 181.126 165 186.189 165V161ZM172.69 171.107C171.416 173.25 170.426 174.805 169.445 175.839C168.522 176.813 167.791 177.13 167.012 177.13V181.13C169.243 181.13 170.954 180.061 172.347 178.591C173.684 177.182 174.888 175.237 176.128 173.152L172.69 171.107ZM167.012 177.13C166.073 177.13 165.026 176.629 163.75 175.422C162.478 174.219 161.257 172.586 159.925 170.793L156.714 173.179C157.993 174.899 159.426 176.838 161.002 178.328C162.574 179.815 164.568 181.13 167.012 181.13V177.13ZM159.925 170.794C156.761 166.534 152.798 161 145.437 161V165C150.489 165 153.315 168.602 156.714 173.179L159.925 170.794ZM145.437 161C145.298 161 145.16 161.002 145.023 161.006L145.138 165.004C145.236 165.001 145.336 165 145.437 165V161ZM144.899 165C144.922 165 144.945 165.001 144.967 165.002L145.193 161.008C145.096 161.003 144.998 161 144.899 161V165ZM134.839 173.151C137.483 168.703 139.837 165 144.899 165V161C137.262 161 133.844 166.996 131.401 171.108L134.839 173.151ZM125.722 181.13C127.954 181.13 129.665 180.061 131.058 178.591C132.395 177.182 133.599 175.237 134.839 173.152L131.401 171.107C130.127 173.25 129.137 174.805 128.156 175.839C127.232 176.813 126.501 177.13 125.722 177.13V181.13ZM115.425 173.179C116.703 174.899 118.137 176.838 119.713 178.328C121.284 179.815 123.279 181.13 125.722 181.13V177.13C124.784 177.13 123.737 176.629 122.461 175.422C121.189 174.219 119.968 172.586 118.636 170.793L115.425 173.179ZM104.148 165C109.2 165 112.025 168.602 115.425 173.179L118.636 170.794C115.472 166.534 111.509 161 104.148 161V165ZM92.8738 173.176C96.2751 168.6 99.1004 165 104.148 165V161C96.7919 161 92.8288 166.532 89.6636 170.789L92.8738 173.176ZM92.871 173.18L92.8736 173.176L89.6639 170.789L89.6613 170.793L92.871 173.18ZM92.8677 173.184L92.8714 173.179L89.6608 170.793L89.6571 170.798L92.8677 173.184ZM82.5741 181.13C85.0178 181.13 87.0112 179.816 88.5827 178.33C90.1573 176.841 91.5901 174.903 92.8677 173.184L89.6571 170.798C88.3254 172.59 87.1056 174.222 85.8342 175.424C84.5597 176.629 83.5136 177.13 82.5741 177.13V181.13ZM73.4572 173.151C74.6966 175.237 75.9 177.182 77.2375 178.592C78.6316 180.061 80.3427 181.13 82.5741 181.13V177.13C81.7948 177.13 81.0632 176.812 80.1393 175.839C79.1587 174.805 78.1688 173.25 76.896 171.108L73.4572 173.151ZM63.3971 165C68.4621 165 70.8136 168.703 73.4573 173.151L76.8959 171.108C74.4529 166.997 71.0369 161 63.3971 161V165ZM62.8997 165.127C62.9584 165.083 63.1332 165 63.3971 165V161C62.3896 161 61.3449 161.295 60.5045 161.923L62.8997 165.127ZM63 164.792C63 164.916 62.9657 165.015 62.9319 165.076C62.9 165.133 62.877 165.144 62.8997 165.127L60.5045 161.923C59.6532 162.56 59 163.568 59 164.792H63ZM62.8997 164.458C62.877 164.441 62.9 164.451 62.9319 164.509C62.9657 164.57 63 164.668 63 164.792H59C59 166.017 59.6532 167.025 60.5045 167.661L62.8997 164.458ZM63.3971 164.584C63.1332 164.584 62.9584 164.502 62.8997 164.458L60.5045 167.661C61.3449 168.29 62.3896 168.584 63.3971 168.584V164.584ZM72.5142 172.563C71.2747 170.477 70.0713 168.531 68.7336 167.122C67.3392 165.652 65.6282 164.584 63.3971 164.584V168.584C64.1768 168.584 64.9085 168.902 65.8321 169.875C66.8125 170.908 67.8024 172.463 69.0751 174.606L72.5142 172.563ZM82.5741 180.714C77.5091 180.714 75.1576 177.012 72.514 172.563L69.0753 174.607C71.5184 178.718 74.9343 184.714 82.5741 184.714V180.714ZM93.8486 172.538C90.4473 177.114 87.622 180.714 82.5741 180.714V184.714C89.9305 184.714 93.8936 179.183 97.0588 174.925L93.8486 172.538ZM93.8506 172.536L93.848 172.539L97.0593 174.924L97.0619 174.921L93.8506 172.536ZM93.855 172.53L93.8513 172.535L97.0612 174.922L97.065 174.916L93.855 172.53ZM104.148 164.584C101.705 164.584 99.7112 165.898 98.1397 167.384C96.5651 168.873 95.1323 170.811 93.8547 172.53L97.0653 174.916C98.397 173.124 99.6168 171.493 100.888 170.29C102.163 169.085 103.209 168.584 104.148 168.584V164.584ZM114.445 172.535C113.167 170.815 111.733 168.876 110.158 167.386C108.586 165.899 106.592 164.584 104.148 164.584V168.584C105.087 168.584 106.133 169.085 107.409 170.292C108.682 171.496 109.903 173.128 111.235 174.921L114.445 172.535Z" fill="black" mask="url(#path-4-outside-1_137_1447)"/>
</svg>
