<svg width="249" height="249" viewBox="0 0 249 249" fill="none" xmlns="http://www.w3.org/2000/svg">
<circle cx="124.5" cy="124.5" r="120.5" stroke="black" stroke-width="8"/>
<path d="M124.5 159C135.671 159 142.73 166.429 147.226 174.879C149.449 179.057 150.917 183.274 151.828 186.471C151.879 186.651 151.928 186.827 151.976 187H97.0239C97.0715 186.827 97.1209 186.651 97.1721 186.471C98.0835 183.274 99.5507 179.057 101.774 174.879C106.27 166.429 113.329 159 124.5 159Z" fill="#737373" stroke="black" stroke-width="8"/>
<path d="M134.922 67.3987C153.166 84.9838 181.869 90.714 204.835 86.7206" stroke="black" stroke-width="8" stroke-linecap="round"/>
<path d="M115.701 67.3987C97.457 84.9838 68.7543 90.714 45.7885 86.7206" stroke="black" stroke-width="8" stroke-linecap="round"/>
<path d="M111.709 108C107.372 115.562 99.0141 121.291 83.3544 121.291C67.6947 121.291 58.6694 115.333 55 108" stroke="black" stroke-width="8" stroke-linecap="round"/>
<path d="M195 108C190.663 115.562 182.305 121.291 166.645 121.291C150.986 121.291 141.96 115.333 138.291 108" stroke="black" stroke-width="8" stroke-linecap="round"/>
<path d="M188.003 155.496C188.668 156.832 189 158.25 189 159.75C189 160.781 188.868 161.777 188.605 162.738C188.341 163.699 187.974 164.596 187.505 165.428C187.035 166.26 186.462 167.016 185.786 167.695C185.11 168.375 184.365 168.961 183.552 169.453C182.738 169.945 181.861 170.326 180.922 170.596C179.982 170.865 179.008 171 178 171C176.992 171 176.018 170.865 175.078 170.596C174.139 170.326 173.262 169.951 172.448 169.471C171.635 168.99 170.896 168.404 170.231 167.713C169.567 167.021 168.994 166.26 168.513 165.428C168.031 164.596 167.659 163.699 167.395 162.738C167.132 161.777 167 160.781 167 159.75C167 158.262 167.321 156.85 167.963 155.514L177.914 135L188.003 155.496Z" fill="black"/>
</svg>
