<svg width="249" height="249" viewBox="0 0 249 249" fill="none" xmlns="http://www.w3.org/2000/svg">
<circle cx="124.5" cy="124.5" r="120.5" stroke="black" stroke-width="8"/>
<path d="M124.5 159C135.671 159 142.73 166.429 147.226 174.879C149.449 179.057 150.917 183.274 151.828 186.471C151.879 186.651 151.928 186.827 151.976 187H97.0239C97.0715 186.827 97.1209 186.651 97.1721 186.471C98.0835 183.274 99.5507 179.057 101.774 174.879C106.27 166.429 113.329 159 124.5 159Z" fill="#737373" stroke="black" stroke-width="8"/>
<path d="M111.709 108C107.372 115.562 99.0141 121.291 83.3544 121.291C67.6947 121.291 58.6694 115.333 55 108" stroke="black" stroke-width="8" stroke-linecap="round"/>
<path d="M195 108C190.663 115.562 182.305 121.291 166.645 121.291C150.986 121.291 141.96 115.333 138.291 108" stroke="black" stroke-width="8" stroke-linecap="round"/>
<path d="M132.896 62.9336C142.896 89.4336 189.301 97.0038 211.398 99.4336" stroke="black" stroke-width="8" stroke-linecap="round"/>
<path d="M117.684 62.9336C107.684 89.4336 61.2793 97.0038 39.1819 99.4336" stroke="black" stroke-width="8" stroke-linecap="round"/>
<path d="M73.0031 155.496C73.6677 156.832 74 158.25 74 159.75C74 160.781 73.8682 161.777 73.6047 162.738C73.3411 163.699 72.9745 164.596 72.5047 165.428C72.0349 166.26 71.462 167.016 70.7859 167.695C70.1099 168.375 69.3651 168.961 68.5516 169.453C67.738 169.945 66.8615 170.326 65.9219 170.596C64.9823 170.865 64.0083 171 63 171C61.9917 171 61.0177 170.865 60.0781 170.596C59.1385 170.326 58.262 169.951 57.4484 169.471C56.6349 168.99 55.8958 168.404 55.2313 167.713C54.5667 167.021 53.9938 166.26 53.5125 165.428C53.0313 164.596 52.6589 163.699 52.3953 162.738C52.1318 161.777 52 160.781 52 159.75C52 158.262 52.3208 156.85 52.9625 155.514L62.9141 135L73.0031 155.496Z" fill="black"/>
<path d="M191.003 157.496C191.668 158.832 192 160.25 192 161.75C192 162.781 191.868 163.777 191.605 164.738C191.341 165.699 190.974 166.596 190.505 167.428C190.035 168.26 189.462 169.016 188.786 169.695C188.11 170.375 187.365 170.961 186.552 171.453C185.738 171.945 184.861 172.326 183.922 172.596C182.982 172.865 182.008 173 181 173C179.992 173 179.018 172.865 178.078 172.596C177.139 172.326 176.262 171.951 175.448 171.471C174.635 170.99 173.896 170.404 173.231 169.713C172.567 169.021 171.994 168.26 171.513 167.428C171.031 166.596 170.659 165.699 170.395 164.738C170.132 163.777 170 162.781 170 161.75C170 160.262 170.321 158.85 170.963 157.514L180.914 137L191.003 157.496Z" fill="black"/>
</svg>
