<svg id="Calque_1" data-name="Calque 1" xmlns="http://www.w3.org/2000/svg" width="500"
  height="500">
  <defs>
    <style>
      .cls-1 {
      fill: #f6f7f9;
      }

      .cls-2 {
      fill: #464ca6;
      }
    </style>
  </defs>
  <path class="cls-2"
    d="m478,227.81c0,110.02-177.23,237.16-216.31,263.85-4.57,3.12-10.57,3.12-15.13,0-39.08-26.69-216.32-153.83-216.32-263.85C30.24,104.17,130.48,3.94,254.12,3.94s223.88,100.23,223.88,223.87Z" />
  <g>
    <path class="cls-1"
      d="m140.54,156.66l-34.65,100.36h22.74l7.45-22.89h36.24l7.43,22.89h22.74l-34.6-100.36h-27.35Zm.93,60.91l12.36-37.98h.78l12.33,37.98h-25.47Z" />
    <path class="cls-1"
      d="m241.74,177.9c3.85-2.56,8.38-3.85,13.57-3.85,2.88,0,5.54.41,8.01,1.23,2.46.82,4.65,1.99,6.54,3.53s3.45,3.39,4.66,5.56c1.21,2.17,2.01,4.65,2.4,7.42h21.46c-.69-5.81-2.25-10.98-4.68-15.49-2.43-4.51-5.58-8.32-9.43-11.44-3.86-3.12-8.27-5.5-13.26-7.13-4.98-1.63-10.38-2.45-16.2-2.45-8.82,0-16.76,2.02-23.82,6.05-7.06,4.04-12.64,9.89-16.76,17.57-4.12,7.68-6.17,16.99-6.17,27.93s2.03,20.21,6.1,27.88c4.07,7.68,9.62,13.54,16.66,17.59,7.04,4.05,15.04,6.08,23.99,6.08,6.44,0,12.21-.97,17.32-2.92s9.52-4.59,13.23-7.94c3.71-3.35,6.66-7.15,8.87-11.42s3.59-8.7,4.14-13.31l-21.46-.1c-.49,2.68-1.36,5.06-2.62,7.16s-2.83,3.86-4.73,5.32c-1.9,1.45-4.06,2.56-6.49,3.31s-5.07,1.13-7.91,1.13c-5.06,0-9.52-1.24-13.38-3.72-3.86-2.48-6.85-6.16-8.99-11.03-2.14-4.87-3.21-10.88-3.21-18.03s1.06-12.88,3.19-17.76c2.12-4.88,5.11-8.61,8.97-11.17Z" />
    <path class="cls-1"
      d="m387.5,217.23c-1.49-3.23-3.57-6.04-6.25-8.43-2.68-2.38-5.85-4.39-9.51-6.03-3.66-1.63-7.68-2.94-12.06-3.92l-9.02-2.16c-2.19-.49-4.25-1.09-6.17-1.79-1.93-.7-3.63-1.54-5.1-2.5-1.47-.96-2.62-2.12-3.46-3.46-.83-1.34-1.22-2.91-1.15-4.7,0-2.16.63-4.08,1.89-5.78,1.26-1.7,3.08-3.03,5.46-3.99,2.38-.96,5.31-1.45,8.77-1.45,5.1,0,9.13,1.09,12.1,3.28,2.97,2.19,4.66,5.26,5.05,9.21h20.34c-.1-5.98-1.7-11.24-4.8-15.78-3.1-4.54-7.44-8.09-13.01-10.63-5.57-2.55-12.08-3.82-19.53-3.82s-13.85,1.27-19.6,3.82c-5.75,2.55-10.27,6.09-13.55,10.63-3.28,4.54-4.91,9.85-4.88,15.93-.03,7.42,2.4,13.31,7.3,17.69,4.9,4.38,11.58,7.6,20.04,9.65l10.93,2.74c3.66.88,6.75,1.86,9.29,2.94,2.53,1.08,4.46,2.39,5.78,3.92,1.32,1.54,1.98,3.43,1.98,5.68,0,2.42-.73,4.56-2.21,6.42-1.47,1.86-3.54,3.32-6.2,4.36-2.66,1.05-5.79,1.57-9.38,1.57s-6.93-.56-9.83-1.69-5.19-2.81-6.91-5.05c-1.71-2.24-2.69-5.04-2.92-8.4h-20.53c.16,7.22,1.92,13.27,5.27,18.16,3.35,4.88,8.02,8.57,14.02,11.05,6,2.48,13.04,3.72,21.15,3.72s15.15-1.23,20.95-3.7c5.8-2.47,10.24-5.95,13.33-10.44,3.09-4.49,4.65-9.81,4.68-15.95-.03-4.18-.79-7.89-2.28-11.12Z" />
  </g>
</svg>