<?xml version="1.0" encoding="UTF-8"?>
<svg id="Calque_1" data-name="Calque 1" xmlns="http://www.w3.org/2000/svg" viewBox="0 0 500 500">
  <defs>
    <style>
      .cls-1 {
        fill: #fff;
      }

      .cls-2 {
        fill: #464ca6;
      }
    </style>
  </defs>
  <path class="cls-2" d="m478,227.81c0,110.02-177.23,237.16-216.31,263.85-4.57,3.12-10.57,3.12-15.13,0-39.08-26.69-216.32-153.83-216.32-263.85C30.24,104.17,130.48,3.94,254.12,3.94s223.88,100.23,223.88,223.87Z"/>
  <g>
    <path class="cls-1" d="m203.79,156.93l-34.9,101.09h22.9l7.5-23.05h36.5l7.48,23.05h22.9l-34.85-101.09h-27.54Zm.93,61.36l12.45-38.25h.79l12.42,38.25h-25.66Z"/>
    <polygon class="cls-1" points="299.7 240.4 299.7 156.93 278.32 156.93 278.32 258.02 343.04 258.02 343.04 240.4 299.7 240.4"/>
  </g>
</svg>