<?xml version="1.0" encoding="UTF-8"?><svg id="uuid-34cd9417-7d13-4ba1-966c-169c12aa92b0" xmlns="http://www.w3.org/2000/svg" width="500" height="500" viewBox="0 0 500 500"><defs><style>.uuid-494b3883-04d6-4326-9cf7-18a96ce2a441{fill:#f6f7f9;}.uuid-494b3883-04d6-4326-9cf7-18a96ce2a441,.uuid-27535c88-a8b0-45be-8ee8-a8fa1ada18e1{stroke-width:0px;}.uuid-27535c88-a8b0-45be-8ee8-a8fa1ada18e1{fill:#1591c2;}</style></defs><path class="uuid-27535c88-a8b0-45be-8ee8-a8fa1ada18e1" d="M499,31.22v270.89c0,16.79-13.61,30.39-30.39,30.39h-115.94l-41.66,72.17-51.5,89.2c-4.23,7.31-14.79,7.31-19.02,0l-51.5-89.2-41.66-72.17H31.39c-16.78,0-30.39-13.6-30.39-30.39V31.22C1,14.44,14.61.83,31.39.83h437.22c16.78,0,30.39,13.61,30.39,30.39Z"/><path class="uuid-494b3883-04d6-4326-9cf7-18a96ce2a441" d="M63.26,169.42h-25.26c4.47,47.88,42.7,86.11,90.58,90.58v-25.26c-34.04-4.26-61.07-31.3-65.32-65.32ZM38,150.58h25.26c4.26-34.04,31.29-61.07,65.32-65.32v-25.26c-47.9,4.47-86.11,42.69-90.58,90.58ZM212.74,150.58h25.26c-4.47-47.88-42.7-86.11-90.58-90.58v25.26c34.02,4.26,61.07,31.29,65.32,65.32ZM147.42,234.74v25.26c47.88-4.47,86.11-42.7,90.58-90.58h-25.26c-4.26,34.02-31.3,61.07-65.32,65.32Z"/><path class="uuid-494b3883-04d6-4326-9cf7-18a96ce2a441" d="M139.38,107.9h0c-8.07,0-15.25,5.12-17.88,12.74l-24.96,72.28c-2.36,6.84,2.72,13.97,9.95,13.97h0c4.56,0,8.6-2.93,10.01-7.27l3.65-11.2c.79-2.44,3.07-4.09,5.64-4.09h27.14c2.57,0,4.84,1.65,5.64,4.1l3.64,11.2c1.41,4.34,5.45,7.28,10.01,7.28h0c7.23,0,12.31-7.12,9.95-13.96l-24.91-72.27c-2.63-7.63-9.81-12.75-17.88-12.75ZM129.99,167.98c-1.58,0-2.69-1.54-2.21-3.04l11.2-34.43h.77l11.19,34.43c.49,1.5-.63,3.04-2.21,3.04h-18.74Z"/></svg>