<?xml version="1.0" encoding="UTF-8"?>
<svg id="Calque_1" data-name="Calque 1" xmlns="http://www.w3.org/2000/svg" viewBox="0 0 500 500">
  <defs>
    <style>
      .cls-1 {
        fill: #464ca6;
      }
    </style>
  </defs>
  <path class="cls-1" d="m490.24,277.72c-5.33-13.86-61.22-31.98-61.22-31.98l-80.61-73.72c-8.88-8.12-20.49-12.63-32.53-12.63h-2.6v-8c0-4.98-4.08-9.06-9.06-9.06s-9.06,4.08-9.06,9.06v8h-6.4v-6.4c0-2.36-1.91-4.26-4.26-4.26H6.26c-2.36,0-4.26,1.91-4.26,4.26v185.49c0,2.36,1.91,4.26,4.26,4.26h85.4c-2.13-4.53-3.32-9.58-3.32-14.92,0-19.43,15.75-35.18,35.18-35.18s35.18,15.75,35.18,35.18c0,5.34-1.18,10.39-3.32,14.92h129.11c.37,0,.72-.06,1.07-.15v.15h99.26c-2.13-4.53-3.32-9.58-3.32-14.92,0-19.88,16.47-35.89,36.51-35.15,18.28.67,33.2,15.62,33.83,33.9.2,5.8-1,11.29-3.29,16.18h8.5c7.61,0,24.92-5.01,34.26-12.79,12.79-10.66,4.26-38.38-1.07-52.24Z"/>
  <path class="cls-1" d="m123.53,297.97c-16.49,0-29.85,13.36-29.85,29.85,0,5.03,1.24,9.77,3.45,13.93,4.99,9.47,14.94,15.92,26.4,15.92s21.4-6.45,26.4-15.92c2.21-4.16,3.45-8.89,3.45-13.93,0-16.49-13.36-29.85-29.85-29.85Z"/>
  <path class="cls-1" d="m416.68,297.97c-16.49,0-29.85,13.36-29.85,29.85,0,5.03,1.24,9.77,3.45,13.93,4.99,9.47,14.94,15.92,26.4,15.92s21.4-6.45,26.4-15.92c2.21-4.16,3.45-8.89,3.45-13.93,0-16.49-13.36-29.85-29.85-29.85Z"/>
</svg>