<svg width="500" height="500" viewBox="0 0 43 43" fill="none" xmlns="http://www.w3.org/2000/svg">
    <path d="M6.10668 23.6428H0.779785C1.72568 33.7323 9.7824 41.789 19.872 42.7349V37.4081C12.6948 36.5119 7.00279 30.8117 6.10668 23.6428ZM0.779785 19.6766H6.10668C7.00279 12.4994 12.6948 6.80748 19.872 5.91136V0.584473C9.7741 1.53037 1.72568 9.57879 0.779785 19.6766ZM37.6034 19.6766H42.9303C41.9844 9.58708 33.9276 1.53037 23.8381 0.584473V5.91136C31.007 6.80748 36.7073 12.4994 37.6034 19.6766ZM23.8381 37.4081V42.7349C33.9276 41.789 41.9844 33.7323 42.9303 23.6428H37.6034C36.7073 30.8117 31.007 36.5119 23.8381 37.4081Z"
          fill="black"/>
    <path d="M30.8576 13.9182C30.2104 12.7483 29.2728 11.8273 28.0531 11.1718C26.8251 10.508 25.3399 10.1761 23.5974 10.1761H19.4654C16.7438 10.1761 14.5367 12.3832 14.5367 15.1048V30.7204C14.5367 32.0645 15.6237 33.1515 16.9679 33.1515C18.312 33.1515 19.399 32.0645 19.399 30.7204V26.9617C19.399 26.2647 19.9632 25.7005 20.6602 25.7005H23.4813C25.2486 25.7005 26.7504 25.3769 27.995 24.7214C29.2396 24.0742 30.1938 23.1615 30.8493 21.9999C31.5048 20.8299 31.8367 19.4858 31.8367 17.959C31.8367 16.4323 31.5048 15.0882 30.8576 13.9182ZM26.3687 19.9587C26.07 20.5395 25.6137 20.9876 24.9997 21.3195C24.3857 21.6431 23.614 21.809 22.6847 21.809H20.6519C19.9549 21.809 19.3907 21.2448 19.3907 20.5478V15.4118C19.3907 14.7148 19.9549 14.1506 20.6519 14.1506H22.6598C23.5974 14.1506 24.3774 14.3082 24.9914 14.6318C25.6054 14.9471 26.0617 15.3952 26.3687 15.9677C26.6674 16.5402 26.8251 17.204 26.8251 17.9673C26.8251 18.7141 26.6757 19.3779 26.3687 19.9587Z"
          fill="black"/>
</svg>
