<?xml version="1.0" encoding="UTF-8"?><svg id="uuid-d49dce0b-81d1-4c1f-88b7-e45f96655bbb" xmlns="http://www.w3.org/2000/svg" width="500" height="500" viewBox="0 0 500 500"><defs><style>.uuid-e8410758-2754-4816-b3b1-36c024aa9a49{fill:#183153;stroke-width:0px;}</style></defs><path class="uuid-e8410758-2754-4816-b3b1-36c024aa9a49" d="M63.92,279H.59c13.3,115.33,105.08,207.12,220.41,220.41v-63.33c-80.69-12.5-144.58-76.42-157.08-157.08ZM279,.59v63.33c80.66,12.5,144.58,76.39,157.08,157.08h63.33C486.12,105.67,394.33,13.88,279,.59ZM436.08,279c-12.5,80.66-76.42,144.58-157.08,157.08v63.33c115.33-13.29,207.12-105.08,220.41-220.41h-63.33ZM.59,221h63.33c12.5-80.69,76.39-144.58,157.08-157.08V.59C105.64,13.88,13.89,105.64.59,221Z"/><path class="uuid-e8410758-2754-4816-b3b1-36c024aa9a49" d="M366.66,348.64l-68.46-198.6c-7.23-20.97-26.96-35.04-49.14-35.04s-41.9,14.06-49.13,35.02l-68.58,198.61c-6.48,18.78,7.46,38.37,27.35,38.37,6.27,0,12.17-2.02,17-5.52,4.83-3.52,8.57-8.51,10.51-14.47l10.02-30.79c2.18-6.71,8.43-11.24,15.49-11.24h74.57c7.06,0,13.31,4.54,15.5,11.26l9.99,30.77c3.87,11.93,14.98,19.99,27.51,19.99h.01c19.87,0,33.83-19.58,27.36-38.36ZM274.78,280.09h-51.5c-4.33,0-7.41-4.23-6.07-8.35l30.78-94.59s.28-.85,1.06-.85,1.05.87,1.05.87l30.74,94.59c1.34,4.12-1.74,8.34-6.07,8.34Z"/></svg>