<svg width="500" height="500" viewBox="0 0 500 500" fill="none" xmlns="http://www.w3.org/2000/svg">
<path d="M150.939 165.11C151.429 166.61 150.309 168.15 148.729 168.15H129.989C128.41 168.15 127.299 166.61 127.779 165.11L138.979 130.681H139.75L150.939 165.11Z" fill="white"/>
<path fill-rule="evenodd" clip-rule="evenodd" d="M468.61 1C485.39 1.0002 499 14.6099 499 31.3896V302.28C499 319.07 485.39 332.67 468.61 332.67H352.67L259.51 494.04C255.28 501.35 244.72 501.35 240.49 494.04L147.33 332.67H31.3896C14.6099 332.67 1.00015 319.07 1 302.28V31.3896C1.00019 14.6099 14.6099 1.00019 31.3896 1H468.61ZM38 169.59C42.47 217.47 80.7001 255.7 128.58 260.17V234.91C94.5401 230.65 67.5098 203.61 63.2598 169.59H38ZM212.74 169.59C208.48 203.61 181.44 230.66 147.42 234.91V260.17C195.3 255.7 233.53 217.47 238 169.59H212.74ZM139.38 108.07C131.31 108.07 124.13 113.191 121.5 120.811L96.54 193.09C94.1801 199.93 99.2595 207.06 106.489 207.061C111.049 207.061 115.09 204.13 116.5 199.79L120.149 188.59C120.94 186.15 123.22 184.5 125.79 184.5H152.93C155.5 184.5 157.769 186.151 158.569 188.601L162.21 199.801C163.62 204.141 167.66 207.08 172.22 207.08C179.45 207.08 184.53 199.96 182.17 193.12L157.26 120.851C154.63 113.221 147.45 108.101 139.38 108.101V108.07ZM128.58 60.1699C80.6801 64.6399 42.47 102.86 38 150.75H63.2598C67.5198 116.71 94.5501 89.6797 128.58 85.4297V60.1699ZM147.42 85.4297C181.44 89.6897 208.49 116.72 212.74 150.75H238C233.53 102.87 195.3 64.6399 147.42 60.1699V85.4297Z" fill="white"/>
</svg>
