<?xml version="1.0" encoding="UTF-8"?><svg id="uuid-8daebd0e-9e93-4075-be41-bf344a1781a8" xmlns="http://www.w3.org/2000/svg" width="500" height="500" viewBox="0 0 500 500"><defs><style>.uuid-de079765-10ce-407e-a95d-ca578b168cbb{fill:#333739;stroke-width:0px;}</style></defs><path class="uuid-de079765-10ce-407e-a95d-ca578b168cbb" d="M65.43,273.31H2.91c11.06,118.51,105.68,213.13,224.19,224.19v-62.52c-84.24-10.53-151.14-77.47-161.67-161.68ZM2.91,226.69h62.52c10.53-84.24,77.44-151.14,161.67-161.67V2.5C108.56,13.56,13.97,108.15,2.91,226.69ZM435.39,226.69h62.52C486.85,108.18,392.23,13.56,273.72,2.5v62.52c84.21,10.53,151.14,77.43,161.68,161.67ZM273.72,434.98v62.52c118.51-11.06,213.13-105.68,224.2-224.19h-62.52c-10.53,84.21-77.47,151.14-161.68,161.68Z"/><path class="uuid-de079765-10ce-407e-a95d-ca578b168cbb" d="M253.81,121.05h0c-19.97,0-37.73,12.66-44.25,31.54l-61.77,178.88c-5.84,16.92,6.73,34.57,24.63,34.57h0c11.29,0,21.29-7.26,24.78-17.99l9.03-27.73c1.97-6.04,7.6-10.13,13.95-10.13h67.16c6.36,0,11.99,4.09,13.95,10.14l9,27.71c3.49,10.74,13.49,18.01,24.79,18.01h0c17.9,0,30.47-17.63,24.64-34.55l-61.66-178.87c-6.51-18.88-24.28-31.56-44.26-31.56ZM230.6,269.74c-3.9,0-6.67-3.81-5.46-7.52l27.72-85.21h1.91l27.69,85.21c1.21,3.71-1.56,7.52-5.46,7.52h-46.38Z"/></svg>