<?xml version="1.0" encoding="UTF-8"?>
<svg id="Calque_1" data-name="Calque 1" xmlns="http://www.w3.org/2000/svg" viewBox="0 0 500 500">
  <defs>
    <style>
      .cls-1 {
        fill: #464ca6;
      }
    </style>
  </defs>
  <rect class="cls-1" x="8.54" y="132.04" width="189.66" height="8.79"/>
  <g>
    <ellipse class="cls-1" cx="149.8" cy="330.29" rx="38.89" ry="37.67"/>
    <path class="cls-1" d="m493.27,235.04h-2.41v-37.56c0-19.37-15.83-35.23-35.17-35.3v-9.42c0-2.94-1.21-5.6-3.14-7.54-1.93-1.93-4.6-3.14-7.54-3.14-5.88,0-10.68,4.8-10.68,10.68v9.42h-155.75v-12.94c0-1.86-1.53-3.39-3.39-3.39H4.39c-1.86,0-3.39,1.53-3.39,3.39v185.39c0,1.86,1.53,3.39,3.39,3.39h100.58c-.24-1.85-.35-3.73-.35-5.65,0-24.97,19.96-45.22,44.59-45.22s44.59,20.25,44.59,45.22c0,1.92-.11,3.81-.35,5.65h160.41c.85,0,1.66-.38,2.2-1.04l4.32-5.26c.97-1.18,1.42-2.7,1.24-4.23-.2-1.8-.43-4.21-.43-5.79,0-26.36,22.07-47.73,49.27-47.73,18.23,0,34.16,9.6,42.67,23.87h34.68c1.33,0,2.41-1.08,2.41-2.41v-7.49c.39-.5.63-1.12.63-1.78v-7.89c4.57-.6,8.14-4.55,8.14-9.29v-28.21c0-3.15-2.59-5.73-5.73-5.73Zm-22.5-5.35l-46.49-7.84c-3.81,0-6.91-3.1-6.91-6.91v-26.38c0-3.81,3.1-6.91,6.91-6.91h38.94c3.81,0,6.91,3.1,6.91,6.91l5.44,36.41c.41,2.8-2.02,5.19-4.8,4.71Z"/>
    <ellipse class="cls-1" cx="410.72" cy="323.81" rx="44.96" ry="43.56"/>
  </g>
</svg>