<svg width="500" height="500" viewBox="0 0 81 65" fill="none" xmlns="http://www.w3.org/2000/svg">
    <g clip-path="url(#clip0_1799_3110)">
        <mask id="path-1-outside-1_1799_3110" maskUnits="userSpaceOnUse" x="5.51904" y="-2.29437" width="70" height="70"
              fill="black">
            <rect fill="white" x="5.51904" y="-2.29437" width="70" height="70"/>
            <path d="M64.144 28.7056C62.394 18.7056 54.519 10.8306 44.519 9.08063V0.955627C58.894 2.83063 70.394 14.3306 72.269 28.7056H64.144ZM72.269 36.7056C70.394 51.2056 58.894 62.7056 44.519 64.4556V56.4556C54.519 54.7056 62.394 46.8306 64.144 36.7056H72.269ZM8.76904 36.7056H16.769C18.519 46.8306 26.394 54.7056 36.519 56.4556V64.4556C22.019 62.7056 10.519 51.2056 8.76904 36.7056ZM8.76904 28.7056C10.519 14.3306 22.019 2.83063 36.519 0.955627V9.08063C26.394 10.8306 18.519 18.7056 16.769 28.7056H8.76904ZM34.519 20.7056V28.7056H46.519V20.7056C46.519 18.5806 48.269 16.7056 50.519 16.7056C52.644 16.7056 54.519 18.5806 54.519 20.7056V44.7056C54.519 46.9556 52.644 48.7056 50.519 48.7056C48.269 48.7056 46.519 46.9556 46.519 44.7056V36.7056H34.519V44.7056C34.519 46.9556 32.644 48.7056 30.519 48.7056C28.269 48.7056 26.519 46.9556 26.519 44.7056V20.7056C26.519 18.5806 28.269 16.7056 30.519 16.7056C32.644 16.7056 34.519 18.5806 34.519 20.7056Z"/>
        </mask>
        <path d="M64.144 28.7056C62.394 18.7056 54.519 10.8306 44.519 9.08063V0.955627C58.894 2.83063 70.394 14.3306 72.269 28.7056H64.144ZM72.269 36.7056C70.394 51.2056 58.894 62.7056 44.519 64.4556V56.4556C54.519 54.7056 62.394 46.8306 64.144 36.7056H72.269ZM8.76904 36.7056H16.769C18.519 46.8306 26.394 54.7056 36.519 56.4556V64.4556C22.019 62.7056 10.519 51.2056 8.76904 36.7056ZM8.76904 28.7056C10.519 14.3306 22.019 2.83063 36.519 0.955627V9.08063C26.394 10.8306 18.519 18.7056 16.769 28.7056H8.76904ZM34.519 20.7056V28.7056H46.519V20.7056C46.519 18.5806 48.269 16.7056 50.519 16.7056C52.644 16.7056 54.519 18.5806 54.519 20.7056V44.7056C54.519 46.9556 52.644 48.7056 50.519 48.7056C48.269 48.7056 46.519 46.9556 46.519 44.7056V36.7056H34.519V44.7056C34.519 46.9556 32.644 48.7056 30.519 48.7056C28.269 48.7056 26.519 46.9556 26.519 44.7056V20.7056C26.519 18.5806 28.269 16.7056 30.519 16.7056C32.644 16.7056 34.519 18.5806 34.519 20.7056Z"
              fill="#575FCF"/>
        <path d="M64.144 28.7056L62.174 29.0504L62.4636 30.7056H64.144V28.7056ZM44.519 9.08063H42.519V10.761L44.1743 11.0507L44.519 9.08063ZM44.519 0.955627L44.7777 -1.02757L42.519 -1.32218V0.955627H44.519ZM72.269 28.7056V30.7056H74.5469L74.2522 28.4469L72.269 28.7056ZM72.269 36.7056L74.2525 36.9621L74.5443 34.7056H72.269V36.7056ZM44.519 64.4556H42.519V66.7139L44.7607 66.441L44.519 64.4556ZM44.519 56.4556L44.1743 54.4856L42.519 54.7752V56.4556H44.519ZM64.144 36.7056V34.7056H62.4601L62.1733 36.365L64.144 36.7056ZM8.76904 36.7056V34.7056H6.51315L6.78345 36.9453L8.76904 36.7056ZM16.769 36.7056L18.7398 36.365L18.453 34.7056H16.769V36.7056ZM36.519 56.4556H38.519V54.7717L36.8597 54.4848L36.519 56.4556ZM36.519 64.4556L36.2794 66.4412L38.519 66.7115V64.4556H36.519ZM8.76904 28.7056L6.7837 28.4639L6.5108 30.7056H8.76904V28.7056ZM36.519 0.955627H38.519V-1.31965L36.2626 -1.02786L36.519 0.955627ZM36.519 9.08063L36.8597 11.0514L38.519 10.7646V9.08063H36.519ZM16.769 28.7056V30.7056H18.4494L18.7391 29.0504L16.769 28.7056ZM34.519 28.7056H32.519V30.7056H34.519V28.7056ZM46.519 28.7056V30.7056H48.519V28.7056H46.519ZM46.519 36.7056H48.519V34.7056H46.519V36.7056ZM34.519 36.7056V34.7056H32.519V36.7056H34.519ZM66.1141 28.3609C64.2188 17.5308 55.6939 9.00583 44.8638 7.11057L44.1743 11.0507C53.3442 12.6554 60.5692 19.8805 62.174 29.0504L66.1141 28.3609ZM46.519 9.08063V0.955627H42.519V9.08063H46.519ZM44.2604 2.93883C57.736 4.69652 68.5282 15.4887 70.2858 28.9643L74.2522 28.4469C72.2599 13.1726 60.0521 0.964736 44.7777 -1.02757L44.2604 2.93883ZM72.269 26.7056H64.144V30.7056H72.269V26.7056ZM70.2856 36.4491C68.5262 50.055 57.7324 60.8323 44.2773 62.4703L44.7607 66.441C60.0557 64.579 72.2619 52.3562 74.2525 36.9621L70.2856 36.4491ZM46.519 64.4556V56.4556H42.519V64.4556H46.519ZM44.8638 58.4257C55.6993 56.5295 64.2217 47.9992 66.1148 37.0463L62.1733 36.365C60.5664 45.662 53.3388 52.8818 44.1743 54.4856L44.8638 58.4257ZM64.144 38.7056H72.269V34.7056H64.144V38.7056ZM8.76904 38.7056H16.769V34.7056H8.76904V38.7056ZM14.7983 37.0463C16.6923 48.0047 25.22 56.5324 36.1784 58.4264L36.8597 54.4848C27.5681 52.8789 20.3458 45.6566 18.7398 36.365L14.7983 37.0463ZM34.519 56.4556V64.4556H38.519V56.4556H34.519ZM36.7587 62.47C23.1733 60.8304 12.3942 50.0513 10.7546 36.466L6.78345 36.9453C8.64384 52.3599 20.8648 64.5808 36.2794 66.4412L36.7587 62.47ZM10.7544 28.9473C12.3924 15.4923 23.1697 4.69849 36.7755 2.93911L36.2626 -1.02786C20.8684 0.962762 8.64569 13.169 6.7837 28.4639L10.7544 28.9473ZM34.519 0.955627V9.08063H38.519V0.955627H34.519ZM36.1784 7.10985C25.2254 9.00295 16.6952 17.5254 14.799 28.3609L18.7391 29.0504C20.3429 19.8859 27.5626 12.6583 36.8597 11.0514L36.1784 7.10985ZM16.769 26.7056H8.76904V30.7056H16.769V26.7056ZM32.519 20.7056V28.7056H36.519V20.7056H32.519ZM34.519 30.7056H46.519V26.7056H34.519V30.7056ZM48.519 28.7056V20.7056H44.519V28.7056H48.519ZM48.519 20.7056C48.519 19.6444 49.4139 18.7056 50.519 18.7056V14.7056C47.1241 14.7056 44.519 17.5168 44.519 20.7056H48.519ZM50.519 18.7056C51.5395 18.7056 52.519 19.6852 52.519 20.7056H56.519C56.519 17.4761 53.7486 14.7056 50.519 14.7056V18.7056ZM52.519 20.7056V44.7056H56.519V20.7056H52.519ZM52.519 44.7056C52.519 45.8107 51.5802 46.7056 50.519 46.7056V50.7056C53.7078 50.7056 56.519 48.1005 56.519 44.7056H52.519ZM50.519 46.7056C49.3736 46.7056 48.519 45.8511 48.519 44.7056H44.519C44.519 48.0602 47.1645 50.7056 50.519 50.7056V46.7056ZM48.519 44.7056V36.7056H44.519V44.7056H48.519ZM46.519 34.7056H34.519V38.7056H46.519V34.7056ZM32.519 36.7056V44.7056H36.519V36.7056H32.519ZM32.519 44.7056C32.519 45.8107 31.5802 46.7056 30.519 46.7056V50.7056C33.7078 50.7056 36.519 48.1005 36.519 44.7056H32.519ZM30.519 46.7056C29.3736 46.7056 28.519 45.8511 28.519 44.7056H24.519C24.519 48.0602 27.1645 50.7056 30.519 50.7056V46.7056ZM28.519 44.7056V20.7056H24.519V44.7056H28.519ZM28.519 20.7056C28.519 19.6444 29.4139 18.7056 30.519 18.7056V14.7056C27.1241 14.7056 24.519 17.5168 24.519 20.7056H28.519ZM30.519 18.7056C31.5395 18.7056 32.519 19.6852 32.519 20.7056H36.519C36.519 17.4761 33.7486 14.7056 30.519 14.7056V18.7056Z"
              fill="#F6F7F9" mask="url(#path-1-outside-1_1799_3110)"/>
    </g>
    <defs>
        <clipPath id="clip0_1799_3110">
            <rect width="499" height="499" fill="white" transform="translate(0.519043 0.705627)"/>
        </clipPath>
    </defs>
</svg>
