<svg width="500" height="500" viewBox="0 0 500 500" fill="none" xmlns="http://www.w3.org/2000/svg">
<path fill-rule="evenodd" clip-rule="evenodd" d="M468.61 1C485.39 1.0002 499 14.6099 499 31.3896V302.28C499 319.07 485.39 332.67 468.61 332.67H352.67L259.51 494.04C255.28 501.35 244.72 501.35 240.49 494.04L147.33 332.67H31.3896C14.6099 332.67 1.00015 319.07 1 302.28V31.3896C1.00019 14.6099 14.6099 1.00019 31.3896 1H468.61ZM38 171.8C43.33 218.04 80.1301 254.84 126.37 260.17V234.78C94.0201 229.77 68.3996 204.14 63.3896 171.8H38ZM212.61 171.8C207.6 204.14 181.97 229.77 149.63 234.78V260.17C195.87 254.84 232.67 218.04 238 171.8H212.61ZM167.51 105.65C161.21 105.651 156.11 110.831 156.11 117.23V147.12C156.11 147.93 155.45 148.591 154.64 148.591H121.4C120.59 148.591 119.93 147.93 119.93 147.12V117.23C119.93 114.03 118.65 111.14 116.59 109.04C114.52 106.94 111.67 105.65 108.521 105.65C102.221 105.65 97.1201 110.83 97.1201 117.23V203.12C97.1201 209.51 102.221 214.7 108.521 214.7C114.82 214.7 119.92 209.52 119.92 203.12V173.23C119.92 172.421 120.58 171.761 121.39 171.761H154.63C155.44 171.761 156.101 172.42 156.101 173.23V203.12C156.101 209.51 161.2 214.7 167.5 214.7C173.8 214.7 178.9 209.52 178.9 203.12V117.23H178.92C178.92 114.03 177.64 111.14 175.58 109.04C173.51 106.94 170.66 105.65 167.51 105.65ZM126.37 60.1699C80.1201 65.4999 43.33 102.29 38 148.54H63.3896C68.3996 116.19 94.0201 90.5696 126.37 85.5596V60.1699ZM149.63 85.5596C181.97 90.5696 207.6 116.19 212.61 148.54H238C232.67 102.3 195.87 65.4999 149.63 60.1699V85.5596Z" fill="white"/>
</svg>
