<?xml version="1.0" encoding="UTF-8"?><svg id="uuid-49e70dbe-75c5-480e-bf32-803e44f0aeda" xmlns="http://www.w3.org/2000/svg" width="500" height="500" viewBox="0 0 500 500"><defs><style>.uuid-d250c0fd-f7b4-47c6-9282-5397ac362152{fill:#f6f7f9;}.uuid-d250c0fd-f7b4-47c6-9282-5397ac362152,.uuid-533d2ffe-d55f-4382-ac55-1cbe1fbf364d{stroke-width:0px;}.uuid-533d2ffe-d55f-4382-ac55-1cbe1fbf364d{fill:#1591c2;}</style></defs><path class="uuid-533d2ffe-d55f-4382-ac55-1cbe1fbf364d" d="M499,31.22v270.89c0,16.79-13.61,30.39-30.39,30.39h-115.94l-41.66,72.17-51.5,89.2c-4.23,7.31-14.79,7.31-19.02,0l-51.5-89.2-41.66-72.17H31.39c-16.78,0-30.39-13.6-30.39-30.39V31.22C1,14.44,14.61.83,31.39.83h437.22c16.78,0,30.39,13.61,30.39,30.39Z"/><path class="uuid-d250c0fd-f7b4-47c6-9282-5397ac362152" d="M63.39,171.63h-25.39c5.33,46.24,42.13,83.04,88.37,88.37v-25.39c-32.35-5.01-57.97-30.64-62.98-62.98ZM149.63,60v25.39c32.34,5.01,57.97,30.63,62.98,62.98h25.39c-5.33-46.24-42.13-83.04-88.37-88.37ZM212.61,171.63c-5.01,32.34-30.64,57.97-62.98,62.98v25.39c46.24-5.33,83.04-42.13,88.37-88.37h-25.39ZM38,148.37h25.39c5.01-32.35,30.63-57.97,62.98-62.98v-25.39c-46.25,5.33-83.04,42.12-88.37,88.37Z"/><path class="uuid-d250c0fd-f7b4-47c6-9282-5397ac362152" d="M178.9,117.06v85.89c0,6.4-5.1,11.58-11.4,11.58s-11.4-5.19-11.4-11.58v-29.89c0-.81-.66-1.47-1.47-1.47h-33.24c-.81,0-1.47.66-1.47,1.47v29.89c0,6.4-5.1,11.58-11.4,11.58s-11.4-5.19-11.4-11.58v-85.89c0-6.4,5.1-11.58,11.4-11.58,3.15,0,6,1.29,8.07,3.39,2.06,2.1,3.34,4.99,3.34,8.19v29.89c0,.81.66,1.47,1.47,1.47h33.24c.81,0,1.47-.66,1.47-1.47v-29.89c0-6.4,5.1-11.58,11.4-11.58,3.15,0,6,1.29,8.07,3.39,2.06,2.1,3.34,4.99,3.34,8.19Z"/></svg>