<?xml version="1.0" encoding="UTF-8"?><svg id="uuid-8e1fb980-fc64-4760-bb38-404f5efb8933" xmlns="http://www.w3.org/2000/svg" width="500" height="500" viewBox="0 0 500 500"><defs><style>.uuid-ab5558e1-21a7-434e-91fb-44f605c75139{fill:#183153;stroke-width:0px;}</style></defs><path class="uuid-ab5558e1-21a7-434e-91fb-44f605c75139" d="M63.92,279H.59c13.3,115.33,105.08,207.12,220.41,220.41v-63.33c-80.69-12.5-144.58-76.42-157.08-157.08ZM279,.59v63.33c80.66,12.5,144.58,76.39,157.08,157.08h63.33C486.12,105.67,394.33,13.88,279,.59ZM436.08,279c-12.5,80.66-76.42,144.58-157.08,157.08v63.33c115.33-13.29,207.12-105.08,220.41-220.41h-63.33ZM.59,221h63.33c12.5-80.69,76.39-144.58,157.08-157.08V.59C105.64,13.88,13.89,105.64.59,221Z"/><path class="uuid-ab5558e1-21a7-434e-91fb-44f605c75139" d="M352,142.89v214.21c0,15.96-12.73,28.89-28.44,28.89s-28.44-12.93-28.44-28.89v-74.55c0-2.02-1.64-3.66-3.66-3.66h-82.9c-2.02,0-3.66,1.64-3.66,3.66v74.55c0,15.96-12.73,28.89-28.44,28.89s-28.44-12.93-28.44-28.89v-214.21c0-15.96,12.73-28.89,28.44-28.89,7.86,0,14.97,3.23,20.12,8.46s8.33,12.45,8.33,20.43v74.55c0,2.02,1.64,3.66,3.66,3.66h82.9c2.02,0,3.66-1.64,3.66-3.66v-74.55c0-15.96,12.73-28.89,28.44-28.89,7.86,0,14.97,3.23,20.12,8.46s8.33,12.45,8.33,20.43Z"/></svg>