<?xml version="1.0" encoding="UTF-8"?><svg id="uuid-734c0200-74c1-4098-8cc1-d4535cb37d96" xmlns="http://www.w3.org/2000/svg" width="500" height="500" viewBox="0 0 500 500"><defs><style>.uuid-09e5827f-ebd4-4157-a84b-cad5e0f1db4e{fill:#333739;stroke-width:0px;}</style></defs><path class="uuid-09e5827f-ebd4-4157-a84b-cad5e0f1db4e" d="M65.34,278.78H2.5c13.2,114.45,104.28,205.53,218.72,218.72v-62.85c-80.07-12.4-143.47-75.83-155.88-155.88ZM278.78,2.5v62.85c80.04,12.4,143.47,75.81,155.88,155.88h62.84C484.31,106.78,393.22,15.69,278.78,2.5ZM434.66,278.78c-12.4,80.04-75.83,143.47-155.88,155.88v62.85c114.45-13.19,205.53-104.28,218.72-218.72h-62.84ZM2.5,221.22h62.84c12.4-80.07,75.81-143.47,155.88-155.88V2.5C106.75,15.69,15.7,106.75,2.5,221.22Z"/><path class="uuid-09e5827f-ebd4-4157-a84b-cad5e0f1db4e" d="M351.22,143.71v212.57c0,15.84-12.63,28.67-28.22,28.67s-28.22-12.83-28.22-28.67v-73.98c0-2.01-1.63-3.64-3.64-3.64h-82.27c-2.01,0-3.64,1.63-3.64,3.64v73.98c0,15.84-12.63,28.67-28.22,28.67s-28.22-12.83-28.22-28.67v-212.57c0-15.84,12.63-28.67,28.22-28.67,7.8,0,14.85,3.2,19.96,8.39s8.26,12.36,8.26,20.28v73.98c0,2.01,1.63,3.64,3.64,3.64h82.27c2.01,0,3.64-1.63,3.64-3.64v-73.98c0-15.84,12.63-28.67,28.22-28.67,7.8,0,14.85,3.2,19.96,8.39s8.26,12.36,8.26,20.28Z"/></svg>