<?xml version="1.0" encoding="UTF-8"?><svg id="uuid-c2de2355-25f1-41e9-9744-51425a086f63" xmlns="http://www.w3.org/2000/svg" width="500" height="500" viewBox="0 0 500 500"><defs><style>.uuid-979a9ad1-3c32-4c40-801c-c033cd8768ce{fill:#333739;stroke-width:0px;}</style></defs><path class="uuid-979a9ad1-3c32-4c40-801c-c033cd8768ce" d="M265.94,79.84h99.29c-7.64-18.85-19.72-35.29-35-48.24l-64.29,48.24ZM302.39,13.91c-15.86-7.35-33.35-11.41-51.92-11.41-51.92,0-96.39,32-114.76,77.34h78.7L302.39,13.91ZM250.47,250c68.35,0,123.75-55.4,123.75-123.75,0-5.22-.29-10.44-.97-15.47H127.69c-.68,5.03-.97,10.25-.97,15.47,0,68.35,55.4,123.75,123.75,123.75ZM153.32,304.53c-9.38,3-18.47,6.77-27.07,11.31v181.66h142.8l-60.13-100.35-55.59-92.62ZM185.22,297.57l45.73,76.18h64.42c40.3,0,76.09,32.86,78.26,73.11,1.02,19.03-4.91,36.64-15.35,50.64h79.57c15.83,0,28.71-12.81,28.71-28.64.04-95.27-77.12-172.46-172.38-172.46h-88.37c-6.96,0-13.83.39-20.59,1.26v-.1ZM62.15,497.5h33.16s0-161.07,0-161.07c-37.79,31.61-61.86,79.16-61.87,132.32,0,15.87,12.84,28.75,28.71,28.75ZM296.2,404.69h-46.21s55.2,92.04,55.2,92.04c22.36-3.99,39.15-24.06,38.04-47.87-1.16-24.85-22.15-44.17-47.03-44.17Z"/></svg>