<?xml version="1.0" encoding="UTF-8"?><svg id="uuid-7e9cd3e7-6681-46e1-9cc2-7656fb1e2a74" xmlns="http://www.w3.org/2000/svg" width="500" height="500" viewBox="0 0 500 500"><defs><style>.uuid-1acb4564-ce1c-4522-8806-3b7c9f377138{fill:#f6f7f9;}.uuid-1acb4564-ce1c-4522-8806-3b7c9f377138,.uuid-4c91a784-b976-45c2-bd74-609ebcdd8bc2{stroke-width:0px;}.uuid-4c91a784-b976-45c2-bd74-609ebcdd8bc2{fill:#1591c2;}</style></defs><path class="uuid-4c91a784-b976-45c2-bd74-609ebcdd8bc2" d="M499,31.22v270.89c0,16.79-13.61,30.39-30.39,30.39h-115.94l-41.66,72.17-51.5,89.2c-4.23,7.31-14.79,7.31-19.02,0l-51.5-89.2-41.66-72.17H31.39c-16.78,0-30.39-13.6-30.39-30.39V31.22C1,14.44,14.61.83,31.39.83h437.22c16.78,0,30.39,13.61,30.39,30.39Z"/><path class="uuid-1acb4564-ce1c-4522-8806-3b7c9f377138" d="M131.94,91.25h40.12c-3.09-7.62-7.97-14.26-14.14-19.49l-25.98,19.49ZM146.67,64.61c-6.41-2.97-13.48-4.61-20.98-4.61-20.98,0-38.95,12.93-46.37,31.25h31.8l35.55-26.64ZM125.69,160c27.62,0,50-22.38,50-50,0-2.11-.12-4.22-.39-6.25h-99.22c-.27,2.03-.39,4.14-.39,6.25,0,27.62,22.38,50,50,50ZM86.44,182.03c-3.79,1.21-7.46,2.73-10.94,4.57v73.4h57.7l-24.3-40.55-22.46-37.42ZM99.33,179.22l18.48,30.78h26.03c16.28,0,30.74,13.28,31.62,29.54.41,7.69-1.98,14.81-6.2,20.46h32.15c6.39,0,11.6-5.18,11.6-11.57.02-38.49-31.16-69.68-69.65-69.68h-35.7c-2.81,0-5.59.16-8.32.51v-.04ZM49.6,260h13.4s0-65.08,0-65.08c-15.27,12.77-25,31.98-25,53.46,0,6.41,5.19,11.62,11.6,11.62ZM144.16,222.5h-18.67s22.3,37.19,22.3,37.19c9.03-1.61,15.82-9.72,15.37-19.34-.47-10.04-8.95-17.85-19-17.85Z"/></svg>