<?xml version="1.0" encoding="UTF-8"?>
<svg id="Calque_1" data-name="Calque 1" xmlns="http://www.w3.org/2000/svg" viewBox="0 0 500 500">
  <defs>
    <style>
      .cls-1 {
        fill: #f6f7f9;
      }

      .cls-2 {
        fill: #464ca6;
      }
    </style>
  </defs>
  <path class="cls-2" d="m478,49.62v177.82c0,41.16-24.41,84.69-57.27,124.62-56.46,68.62-137.84,126.63-163,143.8-4.65,3.17-10.76,3.17-15.4,0-25.16-17.17-106.55-75.18-163.01-143.8-30.11-36.6-53.15-76.23-56.77-114.29V49.62c0-17.52,14.34-31.86,31.86-31.86h391.72c17.52,0,31.86,14.34,31.86,31.86Z"/>
  <g>
    <polygon class="cls-1" points="233.67 67.16 220.81 67.16 220.81 105.58 220.28 105.58 193.91 67.16 182.57 67.16 182.57 128.25 195.49 128.25 195.49 89.8 195.94 89.8 222.51 128.25 233.67 128.25 233.67 67.16"/>
    <rect class="cls-1" x="244.32" y="67.16" width="12.92" height="61.09"/>
    <path class="cls-1" d="m305.54,124.58c4.46-2.45,7.9-5.96,10.29-10.53,2.4-4.57,3.59-10.04,3.59-16.41s-1.2-11.79-3.59-16.35c-2.4-4.55-5.81-8.05-10.25-10.49-4.43-2.44-9.72-3.65-15.87-3.65h-21.83v61.09h21.66c6.2,0,11.54-1.22,16-3.67Zm-24.74-7.4v-38.96h8.23c3.82,0,7.03.68,9.63,2.03,2.61,1.35,4.57,3.46,5.89,6.32,1.32,2.86,1.98,6.55,1.98,11.07s-.66,8.27-1.98,11.14c-1.32,2.87-3.29,4.99-5.91,6.35-2.61,1.36-5.83,2.04-9.65,2.04h-8.2Z"/>
    <path class="cls-1" d="m110.48,207.51c-2.04-1.21-4.22-1.87-6.55-1.97v-.6c2.13-.48,4.02-1.29,5.68-2.43,1.66-1.14,2.97-2.62,3.92-4.42s1.43-3.89,1.43-6.28c0-3.06-.76-5.77-2.27-8.13-1.51-2.36-3.77-4.2-6.77-5.53-3-1.33-6.75-2-11.25-2h-24.46v61.09h26.1c4.57,0,8.42-.74,11.54-2.21,3.12-1.47,5.48-3.48,7.08-6.01,1.6-2.54,2.4-5.42,2.4-8.67,0-3-.64-5.59-1.91-7.77-1.27-2.18-2.93-3.87-4.97-5.09Zm-27.34-20.91h9.81c2.86,0,5.08.68,6.64,2.03,1.56,1.35,2.34,3.13,2.34,5.34,0,1.61-.4,2.99-1.21,4.15-.81,1.15-1.9,2.04-3.28,2.67-1.38.63-2.96.94-4.73.94h-9.58v-15.12Zm18.4,38.02c-1.65,1.38-4.28,2.07-7.88,2.07h-10.53v-16.23h10.83c2.07,0,3.85.37,5.35,1.1,1.5.74,2.66,1.75,3.48,3.04.82,1.29,1.22,2.78,1.22,4.47,0,2.31-.83,4.15-2.48,5.53Z"/>
    <polygon class="cls-1" points="138.65 176.16 125.73 176.16 125.73 237.25 164.84 237.25 164.84 226.6 138.65 226.6 138.65 176.16"/>
    <polygon class="cls-1" points="186.32 212.01 212.45 212.01 212.45 201.37 186.32 201.37 186.32 186.81 214.57 186.81 214.57 176.16 173.4 176.16 173.4 237.25 214.69 237.25 214.69 226.6 186.32 226.6 186.32 212.01"/>
    <path class="cls-1" d="m266.02,207.9c-1.63-1.45-3.56-2.67-5.79-3.67-2.23-.99-4.67-1.79-7.34-2.39l-5.49-1.31c-1.33-.3-2.59-.66-3.76-1.09s-2.21-.93-3.1-1.52-1.6-1.29-2.1-2.1c-.51-.81-.74-1.77-.7-2.86,0-1.31.38-2.49,1.15-3.52s1.87-1.84,3.33-2.43c1.45-.59,3.23-.88,5.34-.88,3.1,0,5.56.67,7.37,2s2.83,3.2,3.07,5.61h12.38c-.06-3.64-1.03-6.84-2.92-9.6-1.89-2.76-4.53-4.92-7.92-6.47-3.39-1.55-7.35-2.33-11.89-2.33s-8.43.78-11.93,2.33c-3.5,1.55-6.25,3.71-8.25,6.47-2,2.76-2.99,6-2.97,9.69-.02,4.51,1.46,8.1,4.44,10.77s7.05,4.62,12.2,5.88l6.65,1.67c2.23.54,4.11,1.13,5.65,1.79s2.71,1.45,3.52,2.39,1.21,2.09,1.21,3.46c0,1.47-.45,2.77-1.34,3.91-.9,1.13-2.15,2.02-3.77,2.65-1.62.64-3.53.96-5.71.96s-4.22-.34-5.98-1.03-3.16-1.71-4.21-3.07-1.64-3.07-1.77-5.12h-12.5c.1,4.4,1.17,8.08,3.21,11.05,2.04,2.97,4.88,5.22,8.53,6.73,3.65,1.51,7.94,2.27,12.87,2.27s9.22-.75,12.75-2.25c3.53-1.5,6.23-3.62,8.11-6.35,1.88-2.73,2.83-5.97,2.85-9.71-.02-2.54-.48-4.8-1.39-6.77-.91-1.97-2.17-3.68-3.8-5.13Z"/>
    <path class="cls-1" d="m321.03,207.9c-1.63-1.45-3.56-2.67-5.79-3.67-2.23-.99-4.67-1.79-7.34-2.39l-5.49-1.31c-1.33-.3-2.59-.66-3.76-1.09s-2.21-.93-3.1-1.52c-.89-.59-1.6-1.29-2.1-2.1-.51-.81-.74-1.77-.7-2.86,0-1.31.38-2.49,1.15-3.52s1.87-1.84,3.33-2.43c1.45-.59,3.23-.88,5.34-.88,3.1,0,5.56.67,7.37,2,1.81,1.33,2.83,3.2,3.07,5.61h12.38c-.06-3.64-1.03-6.84-2.92-9.6-1.89-2.76-4.53-4.92-7.92-6.47-3.39-1.55-7.35-2.33-11.89-2.33s-8.43.78-11.93,2.33c-3.5,1.55-6.25,3.71-8.25,6.47-2,2.76-2.99,6-2.97,9.69-.02,4.51,1.46,8.1,4.44,10.77,2.98,2.67,7.05,4.62,12.2,5.88l6.65,1.67c2.23.54,4.11,1.13,5.65,1.79,1.54.66,2.71,1.45,3.52,2.39.8.93,1.21,2.09,1.21,3.46,0,1.47-.45,2.77-1.34,3.91s-2.15,2.02-3.77,2.65c-1.62.64-3.53.96-5.71.96s-4.22-.34-5.98-1.03-3.16-1.71-4.21-3.07c-1.04-1.36-1.64-3.07-1.78-5.12h-12.5c.1,4.4,1.17,8.08,3.21,11.05,2.04,2.97,4.88,5.22,8.53,6.73,3.65,1.51,7.94,2.27,12.87,2.27s9.22-.75,12.75-2.25c3.53-1.5,6.23-3.62,8.11-6.35,1.88-2.73,2.83-5.97,2.85-9.71-.02-2.54-.48-4.8-1.39-6.77s-2.17-3.68-3.8-5.13Z"/>
    <polygon class="cls-1" points="369.05 156.68 357.3 156.68 350.97 170.25 359.95 170.25 369.05 156.68"/>
    <polygon class="cls-1" points="347.78 212.01 373.91 212.01 373.91 201.37 347.78 201.37 347.78 186.81 376.03 186.81 376.03 176.16 334.87 176.16 334.87 237.25 376.15 237.25 376.15 226.6 347.78 226.6 347.78 212.01"/>
    <path class="cls-1" d="m431.29,213.03c-.9-1.97-2.17-3.68-3.8-5.13-1.63-1.45-3.56-2.67-5.79-3.67-2.23-.99-4.67-1.79-7.34-2.39l-5.49-1.31c-1.33-.3-2.58-.66-3.76-1.09s-2.21-.93-3.1-1.52-1.6-1.29-2.1-2.1c-.51-.81-.74-1.77-.7-2.86,0-1.31.38-2.49,1.15-3.52s1.88-1.84,3.33-2.43c1.45-.59,3.23-.88,5.34-.88,3.1,0,5.56.67,7.37,2,1.81,1.33,2.83,3.2,3.07,5.61h12.38c-.06-3.64-1.03-6.84-2.92-9.6-1.89-2.76-4.53-4.92-7.92-6.47-3.39-1.55-7.35-2.33-11.89-2.33s-8.43.78-11.93,2.33c-3.5,1.55-6.25,3.71-8.25,6.47-2,2.76-2.99,6-2.97,9.69-.02,4.51,1.46,8.1,4.45,10.77,2.98,2.67,7.05,4.62,12.2,5.88l6.65,1.67c2.23.54,4.11,1.13,5.65,1.79s2.71,1.45,3.52,2.39c.81.93,1.21,2.09,1.21,3.46,0,1.47-.45,2.77-1.34,3.91-.9,1.13-2.15,2.02-3.77,2.65-1.62.64-3.53.96-5.71.96s-4.22-.34-5.98-1.03-3.16-1.71-4.21-3.07c-1.04-1.36-1.63-3.07-1.77-5.12h-12.5c.1,4.4,1.17,8.08,3.21,11.05,2.04,2.97,4.88,5.22,8.53,6.73,3.65,1.51,7.94,2.27,12.87,2.27s9.22-.75,12.75-2.25c3.53-1.5,6.23-3.62,8.12-6.35,1.88-2.73,2.83-5.97,2.85-9.71-.02-2.54-.48-4.8-1.39-6.77Z"/>
  </g>
</svg>