<svg width="500" height="500" viewBox="0 0 500 500" fill="none" xmlns="http://www.w3.org/2000/svg">
<path fill-rule="evenodd" clip-rule="evenodd" d="M468.61 1C485.39 1.0002 499 14.6099 499 31.3896V302.28C499 319.07 485.39 332.67 468.61 332.67H352.67L259.51 494.04C255.28 501.35 244.72 501.35 240.49 494.04L147.33 332.67H31.3896C14.6099 332.67 1.00015 319.07 1 302.28V31.3896C1.00019 14.6099 14.6099 1.00019 31.3896 1H468.61ZM63 195.09C47.73 207.86 38 227.07 38 248.55C38 254.96 43.1898 260.17 49.5996 260.17H63V195.09ZM86.4404 182.2C82.6505 183.41 78.98 184.93 75.5 186.77V260.17H133.2L86.4404 182.2ZM107.66 178.92C104.854 178.92 102.078 179.079 99.3525 179.428L99.3398 179.405V179.39H99.3301L99.3398 179.405V179.43C99.344 179.429 99.3483 179.428 99.3525 179.428L117.81 210.17H143.84C160.12 210.17 174.58 223.45 175.46 239.71C175.87 247.4 173.48 254.52 169.26 260.17H201.41C207.8 260.17 213.01 254.99 213.01 248.6C213.03 210.11 181.85 178.92 143.36 178.92H107.66ZM147.79 259.86C156.82 258.25 163.61 250.14 163.16 240.52C162.69 230.48 154.21 222.67 144.16 222.67H125.49L147.79 259.86ZM76.0801 103.92C75.8101 105.95 75.6904 108.06 75.6904 110.17C75.6904 137.79 98.0704 160.17 125.69 160.17C153.31 160.17 175.69 137.79 175.69 110.17C175.69 108.06 175.57 105.95 175.3 103.92H76.0801ZM125.69 60.1699C104.71 60.1699 86.7403 73.1 79.3203 91.4199H111.12L146.67 64.7803C140.26 61.8103 133.19 60.17 125.69 60.1699ZM131.94 91.4199H172.06C168.97 83.8 164.09 77.1597 157.92 71.9297L131.94 91.4199Z" fill="white"/>
</svg>
