<svg width="500" height="500" viewBox="0 0 500 500" fill="none" xmlns="http://www.w3.org/2000/svg">
<path d="M141.83 124.53C146.3 124.53 149.99 125.29 152.9 126.8C155.81 128.31 157.99 130.41 159.42 133.13C160.85 135.84 161.57 139.01 161.57 142.63C161.57 146.25 160.85 149.38 159.42 152.13V152.11C157.99 154.87 155.82 157 152.93 158.56C150.03 160.099 146.37 160.88 141.94 160.88H132.29C128.98 160.88 126.3 158.2 126.3 154.89V130.52C126.3 127.21 128.98 124.53 132.29 124.53H141.83Z" fill="white"/>
<path fill-rule="evenodd" clip-rule="evenodd" d="M468.61 1C485.39 1.0002 499 14.6099 499 31.3896V302.28C499 319.07 485.39 332.67 468.61 332.67H352.67L259.51 494.04C255.28 501.35 244.72 501.35 240.49 494.04L147.33 332.67H31.3896C14.6099 332.67 1.00015 319.07 1 302.28V31.3896C1.00019 14.6099 14.6099 1.00019 31.3896 1H468.61ZM38 169.59C42.47 217.47 80.7001 255.7 128.58 260.17V234.91C94.5401 230.65 67.5098 203.61 63.2598 169.59H38ZM212.74 169.59C208.48 203.61 181.44 230.66 147.42 234.91V260.17C195.3 255.7 233.53 217.47 238 169.59H212.74ZM126.64 105.67C113.72 105.67 103.25 116.14 103.25 129.06V203.15C103.25 209.52 108.41 214.68 114.78 214.68C121.15 214.68 126.309 209.52 126.31 203.15V185.33C126.31 182.02 128.99 179.34 132.3 179.34H145.67C154.05 179.34 161.19 177.8 167.09 174.71C173.01 171.63 177.52 167.32 180.64 161.78C183.77 156.25 185.32 149.86 185.32 142.62C185.32 135.38 183.78 128.989 180.72 123.439L180.71 123.43C177.65 117.87 173.19 113.52 167.39 110.38C161.57 107.24 154.52 105.67 146.26 105.67H126.64ZM128.58 60.1699C80.6801 64.6399 42.47 102.86 38 150.75H63.2598C67.5198 116.71 94.5501 89.6797 128.58 85.4297V60.1699ZM147.42 85.4297C181.44 89.6897 208.49 116.72 212.74 150.75H238C233.53 102.87 195.3 64.6399 147.42 60.1699V85.4297Z" fill="white"/>
</svg>
