<?xml version="1.0" encoding="UTF-8"?><svg id="uuid-2f5da951-4de0-474d-9cdf-a6a06cf4973a" xmlns="http://www.w3.org/2000/svg" width="500" height="500" viewBox="0 0 500 500"><defs><style>.uuid-f0725636-1d69-42a7-adda-263b4220ddad{fill:#183153;stroke-width:0px;}.uuid-18ffd408-487b-456c-b42f-006e42ac5dc5{font-family:ArialRoundedMTBold, 'Arial Rounded MT Bold';font-size:366.48px;}</style></defs><path class="uuid-f0725636-1d69-42a7-adda-263b4220ddad" d="M63.92,279H.59c13.3,115.33,105.08,207.12,220.41,220.41v-63.33c-80.69-12.5-144.58-76.42-157.08-157.08ZM279,.59v63.33c80.66,12.5,144.58,76.39,157.08,157.08h63.33C486.12,105.67,394.33,13.88,279,.59ZM436.08,279c-12.5,80.66-76.42,144.58-157.08,157.08v63.33c115.33-13.29,207.12-105.08,220.41-220.41h-63.33ZM.59,221h63.33c12.5-80.69,76.39-144.58,157.08-157.08V.59C105.64,13.88,13.89,105.64.59,221Z"/><path class="uuid-f0725636-1d69-42a7-adda-263b4220ddad" d="M351.07,158.15c-7.66-13.91-18.79-24.77-33.31-32.62-14.56-7.85-32.17-11.78-52.82-11.78h-49.04c-32.29,0-58.47,26.18-58.47,58.47v185.22c0,15.91,12.9,28.81,28.81,28.81h0c15.91,0,28.81-12.9,28.81-28.81v-44.55c0-8.28,6.71-14.99,14.99-14.99h33.42c20.96,0,38.8-3.85,53.55-11.59,14.79-7.7,26.07-18.48,33.88-32.32,7.81-13.83,11.7-29.8,11.7-47.91s-3.85-34.07-11.51-47.95ZM297.86,229.84c-3.58,6.9-8.99,12.23-16.24,16.12-7.24,3.85-16.39,5.79-27.48,5.79h-27.11c-6.62,0-11.99-5.37-11.99-11.99v-66.91c0-6.62,5.37-11.99,11.99-11.99h26.84c11.17,0,20.39,1.91,27.67,5.68,7.28,3.77,12.73,9.03,16.31,15.82,3.58,6.78,5.37,14.71,5.37,23.74s-1.79,16.88-5.37,23.74Z"/><text class="uuid-18ffd408-487b-456c-b42f-006e42ac5dc5" transform="translate(475.34 -35.36) scale(.93 1)"><tspan x="0" y="0">H</tspan></text></svg>