<?xml version="1.0" encoding="UTF-8"?><svg id="uuid-da09de64-46e9-4096-bb5c-07190e0ea8d5" xmlns="http://www.w3.org/2000/svg" width="500" height="500" viewBox="0 0 500 500"><defs><style>.uuid-95ce27e2-25bb-41bf-90b3-4efbf19e0533{fill:#f6f7f9;}.uuid-95ce27e2-25bb-41bf-90b3-4efbf19e0533,.uuid-cbbb8b72-9e9d-4d3c-9556-3b99e390b30f{stroke-width:0px;}.uuid-cbbb8b72-9e9d-4d3c-9556-3b99e390b30f{fill:#1591c2;}</style></defs><path class="uuid-cbbb8b72-9e9d-4d3c-9556-3b99e390b30f" d="M499,31.22v270.89c0,16.79-13.61,30.39-30.39,30.39h-115.94l-41.66,72.17-51.5,89.2c-4.23,7.31-14.79,7.31-19.02,0l-51.5-89.2-41.66-72.17H31.39c-16.78,0-30.39-13.6-30.39-30.39V31.22C1,14.44,14.61.83,31.39.83h437.22c16.78,0,30.39,13.61,30.39,30.39Z"/><path class="uuid-95ce27e2-25bb-41bf-90b3-4efbf19e0533" d="M63.26,169.42h-25.26c4.47,47.88,42.7,86.11,90.58,90.58v-25.26c-34.04-4.26-61.07-31.3-65.32-65.32ZM38,150.58h25.26c4.26-34.04,31.29-61.07,65.32-65.32v-25.26c-47.9,4.47-86.11,42.69-90.58,90.58ZM212.74,150.58h25.26c-4.47-47.88-42.7-86.11-90.58-90.58v25.26c34.02,4.26,61.07,31.29,65.32,65.32ZM147.42,234.74v25.26c47.88-4.47,86.11-42.7,90.58-90.58h-25.26c-4.26,34.02-31.3,61.07-65.32,65.32Z"/><path class="uuid-95ce27e2-25bb-41bf-90b3-4efbf19e0533" d="M180.71,123.26c-3.06-5.56-7.52-9.91-13.32-13.05-5.82-3.14-12.87-4.71-21.13-4.71h-19.62c-12.92,0-23.39,10.47-23.39,23.39v74.09c0,6.37,5.16,11.53,11.53,11.53h0c6.37,0,11.53-5.16,11.53-11.53v-17.82c0-3.31,2.68-5.99,5.99-5.99h13.37c8.38,0,15.52-1.54,21.42-4.63,5.92-3.08,10.43-7.39,13.55-12.93,3.13-5.53,4.68-11.92,4.68-19.16s-1.54-13.63-4.6-19.18ZM159.42,151.94c-1.43,2.76-3.6,4.89-6.49,6.45-2.9,1.54-6.56,2.32-10.99,2.32h-9.65c-3.31,0-5.99-2.68-5.99-5.99v-24.37c0-3.31,2.68-5.99,5.99-5.99h9.54c4.47,0,8.16.76,11.07,2.27,2.91,1.51,5.09,3.61,6.52,6.33,1.43,2.71,2.15,5.88,2.15,9.5s-.72,6.75-2.15,9.5Z"/></svg>