<?xml version="1.0" encoding="UTF-8"?><svg id="uuid-cd167a43-fbf2-4c6d-874a-32a1f075c502" xmlns="http://www.w3.org/2000/svg" width="500" height="500" viewBox="0 0 500 500"><defs><style>.uuid-9d5a4c98-102e-4fb9-8793-cd3a979c2949{fill:#333739;stroke-width:0px;}</style></defs><path class="uuid-9d5a4c98-102e-4fb9-8793-cd3a979c2949" d="M64.63,273.31H2.11c11.06,118.51,105.68,213.13,224.19,224.19v-62.52c-84.24-10.53-151.14-77.47-161.67-161.68ZM2.11,226.69h62.52c10.53-84.24,77.44-151.14,161.67-161.67V2.5C107.76,13.56,13.17,108.15,2.11,226.69ZM434.59,226.69h62.52C486.05,108.18,391.43,13.56,272.91,2.5v62.52c84.21,10.53,151.14,77.43,161.68,161.67ZM272.91,434.98v62.52c118.51-11.06,213.13-105.68,224.2-224.19h-62.52c-10.53,84.21-77.47,151.14-161.68,161.68Z"/><path class="uuid-9d5a4c98-102e-4fb9-8793-cd3a979c2949" d="M355.3,159.07c-7.58-13.77-18.6-24.53-32.98-32.3-14.41-7.77-31.85-11.66-52.3-11.66h-48.55c-31.97,0-57.89,25.92-57.89,57.89v183.37c0,15.75,12.77,28.52,28.52,28.52h0c15.75,0,28.52-12.77,28.52-28.52v-44.1c0-8.19,6.64-14.84,14.84-14.84h33.08c20.75,0,38.41-3.81,53.01-11.47,14.64-7.62,25.81-18.3,33.54-32,7.73-13.7,11.58-29.51,11.58-47.43s-3.81-33.73-11.39-47.47ZM302.63,230.04c-3.55,6.83-8.9,12.11-16.07,15.96-7.17,3.81-16.22,5.74-27.2,5.74h-23.88c-8.19,0-14.84-6.64-14.84-14.84v-60.32c0-8.19,6.64-14.84,14.84-14.84h23.61c11.06,0,20.19,1.89,27.39,5.62,7.21,3.74,12.6,8.94,16.15,15.66,3.55,6.72,5.32,14.56,5.32,23.51s-1.77,16.71-5.32,23.51Z"/></svg>