<?xml version="1.0" encoding="UTF-8"?><svg id="uuid-294c950e-4ffb-49bb-94d1-dcbbf3e68fae" xmlns="http://www.w3.org/2000/svg" width="500" height="500" viewBox="0 0 500 500"><defs><style>.uuid-33d7ca64-a58f-4ef1-b0a2-9e594d90eb97{fill:#333739;stroke-width:0px;}</style></defs><path class="uuid-33d7ca64-a58f-4ef1-b0a2-9e594d90eb97" d="M485.12,76.74h-86.62c0-13.69-11.06-24.75-24.76-24.75s-24.75,11.06-24.75,24.75v371.27h49.51v-247.51h86.62c6.81,0,12.38-5.57,12.38-12.38v-99c0-6.81-5.57-12.38-12.38-12.38Z"/><path class="uuid-33d7ca64-a58f-4ef1-b0a2-9e594d90eb97" d="M324.24,174.97v273.04H76.73c-13.69,0-24.75-11.06-24.75-24.75v-148.51h-24.75c-10.36,0-19.65-6.42-23.2-16.16-3.56-9.75-.78-20.66,7.11-27.39L184.4,82.7c9.28-7.97,22.97-7.97,32.25,0h-.07l107.66,92.27Z"/></svg>