<?xml version="1.0" encoding="UTF-8"?>
<svg id="Calque_1" data-name="Calque 1" xmlns="http://www.w3.org/2000/svg" viewBox="0 0 500 500">
  <defs>
    <style>
      .cls-1 {
        fill: #f6f7f9;
      }

      .cls-2 {
        fill: #464ca6;
      }
    </style>
  </defs>
  <path class="cls-2" d="m478,49.62v177.82c0,41.16-24.41,84.69-57.27,124.62-56.46,68.62-137.84,126.63-163,143.8-4.65,3.17-10.76,3.17-15.4,0-25.16-17.17-106.55-75.18-163.01-143.8-30.11-36.6-53.15-76.23-56.77-114.29V49.62c0-17.52,14.34-31.86,31.86-31.86h391.72c17.52,0,31.86,14.34,31.86,31.86Z"/>
  <g>
    <path class="cls-1" d="m202.62,74.29c-8.81-4.75-19.47-7.13-31.99-7.13h-65.11v165.03h34.89v-53.5h29.33c12.68,0,23.49-2.34,32.43-7.01,8.95-4.67,15.78-11.2,20.51-19.58,4.73-8.38,7.09-18.05,7.09-29.01s-2.32-20.64-6.97-29.05c-4.65-8.41-11.38-14.99-20.19-19.74Zm-12.05,63.17c-2.18,4.16-5.45,7.41-9.83,9.75-4.38,2.34-9.92,3.51-16.64,3.51h-23.69v-55.04h23.53c6.77,0,12.36,1.14,16.76,3.42,4.4,2.28,7.7,5.48,9.87,9.59,2.18,4.11,3.26,8.9,3.26,14.38s-1.09,10.22-3.26,14.38Z"/>
    <path class="cls-1" d="m358.5,187.54c-2.07,3.44-4.66,6.35-7.78,8.74-3.12,2.39-6.68,4.2-10.68,5.44-4,1.24-8.34,1.85-13.01,1.85-8.33,0-15.66-2.04-22-6.12-6.34-4.08-11.27-10.12-14.79-18.13-3.52-8-5.28-17.89-5.28-29.65s1.75-21.18,5.24-29.21c3.49-8.03,8.41-14.15,14.75-18.37,6.34-4.22,13.78-6.33,22.32-6.33,4.73,0,9.12.67,13.17,2.01,4.05,1.34,7.64,3.28,10.76,5.8,3.12,2.53,5.67,5.57,7.65,9.15,1.99,3.57,3.3,7.64,3.95,12.21h35.29c-1.13-9.56-3.69-18.05-7.7-25.46s-9.17-13.68-15.51-18.82c-6.34-5.13-13.61-9.04-21.8-11.72-8.19-2.69-17.07-4.03-26.63-4.03-14.5,0-27.56,3.32-39.16,9.95-11.6,6.64-20.79,16.26-27.56,28.89-6.77,12.62-10.15,27.93-10.15,45.93s3.34,33.23,10.03,45.85c6.69,12.62,15.82,22.27,27.4,28.93,11.58,6.66,24.72,9.99,39.44,9.99,10.58,0,20.08-1.6,28.48-4.79,8.41-3.2,15.66-7.55,21.76-13.05,6.1-5.51,10.96-11.76,14.59-18.78,3.62-7.01,5.89-14.3,6.81-21.88l-35.29-.16c-.81,4.41-2.24,8.33-4.31,11.76Z"/>
  </g>
</svg>