<?xml version="1.0" encoding="UTF-8"?><svg id="uuid-021f4d34-12db-40a8-9b25-c57cfaf70a75" xmlns="http://www.w3.org/2000/svg" width="500" height="500" viewBox="0 0 500 500"><defs><style>.uuid-ee1c2335-8cc0-427a-872e-033295a132e7{fill:#f6f7f9;}.uuid-ee1c2335-8cc0-427a-872e-033295a132e7,.uuid-d28f2f71-28f1-4f61-8484-572f66dd7ca1{stroke-width:0px;}.uuid-d28f2f71-28f1-4f61-8484-572f66dd7ca1{fill:#1591c2;}</style></defs><path class="uuid-d28f2f71-28f1-4f61-8484-572f66dd7ca1" d="M499,31.22v270.89c0,16.79-13.61,30.39-30.39,30.39h-115.94l-41.66,72.17-51.5,89.2c-4.23,7.31-14.79,7.31-19.02,0l-51.5-89.2-41.66-72.17H31.39c-16.78,0-30.39-13.6-30.39-30.39V31.22C1,14.44,14.61.83,31.39.83h437.22c16.78,0,30.39,13.61,30.39,30.39Z"/><path class="uuid-ee1c2335-8cc0-427a-872e-033295a132e7" d="M233,90h-35c0-5.53-4.47-10-10-10s-10,4.47-10,10v150.01h20v-100h35c2.75,0,5-2.25,5-5v-40c0-2.75-2.25-5-5-5Z"/><path class="uuid-ee1c2335-8cc0-427a-872e-033295a132e7" d="M167.99,129.68v110.32h-100c-5.53,0-10-4.47-10-10v-60h-10c-4.19,0-7.94-2.59-9.37-6.53-1.44-3.94-.32-8.35,2.87-11.07l70-60c3.75-3.22,9.28-3.22,13.03,0h-.03l43.5,37.28Z"/></svg>