<?xml version="1.0" encoding="UTF-8"?><svg id="uuid-22d02e3a-147a-43d2-8f65-bb4054f13574" xmlns="http://www.w3.org/2000/svg" width="500" height="500" viewBox="0 0 500 500"><defs><style>.uuid-384588f8-9782-47fc-903b-d0f16ed37e3b{fill:#333739;stroke-width:0px;}</style></defs><path class="uuid-384588f8-9782-47fc-903b-d0f16ed37e3b" d="M9.83,59.28c9.67-9.67,25.29-9.67,34.95,0l81.5,81.42v-14.46c0-13.69,11.06-24.74,24.74-24.74s24.74,11.06,24.74,24.74v74.23c0,3.33-.7,6.57-1.86,9.43-1.24,2.86-2.94,5.64-5.34,7.96l-.08.08c-2.4,2.32-5.1,4.1-7.96,5.34-2.94,1.24-6.11,1.86-9.43,1.86h-74.31c-13.69,0-24.74-11.06-24.74-24.74s11.06-24.74,24.74-24.74h14.46L9.83,94.23C.16,84.56.16,68.94,9.83,59.28ZM200.51,249.96c0-27.33,22.16-49.49,49.49-49.49s49.49,22.16,49.49,49.49-22.16,49.49-49.49,49.49-49.49-22.16-49.49-49.49ZM91.25,324.19h-14.46c-13.69,0-24.74-11.06-24.74-24.74s11.06-24.74,24.74-24.74h74.31c6.8,0,12.91,2.78,17.4,7.19l.08.08c2.32,2.4,4.1,5.1,5.34,7.96,1.24,2.94,1.86,6.11,1.86,9.43v74.23c0,13.69-11.06,24.74-24.74,24.74s-24.74-11.06-24.74-24.74v-14.38l-81.5,81.42c-9.67,9.67-25.36,9.67-35.03,0-9.67-9.67-9.67-25.36,0-35.03l81.5-81.42ZM324.23,126.24c0-13.69,11.06-24.74,24.74-24.74s24.74,11.06,24.74,24.74v14.46l81.5-81.42c9.67-9.67,25.36-9.67,35.03,0,9.67,9.67,9.67,25.36,0,35.03l-81.5,81.42h14.46c13.69,0,24.74,11.06,24.74,24.74s-11.06,24.74-24.74,24.74h-74.23c-6.8,0-12.99-2.78-17.48-7.19l-.08-.08c-2.32-2.4-4.1-5.1-5.34-7.96-1.24-2.86-1.86-6.03-1.86-9.43v-.08h0v-74.23ZM408.75,324.19l81.42,81.5c9.67,9.67,9.67,25.36,0,35.03-9.67,9.67-25.36,9.67-35.03,0l-81.42-81.5v14.46c0,13.69-11.06,24.74-24.74,24.74s-24.74-11.06-24.74-24.74v-74.23h0v-.08c0-3.32.7-6.5,1.86-9.43,1.24-2.94,3.02-5.64,5.34-8.04,4.48-4.48,10.59-7.19,17.4-7.27h74.31c13.69,0,24.74,11.06,24.74,24.74s-11.06,24.74-24.74,24.74h-14.38v.08Z"/></svg>