<svg width="500" height="500" viewBox="0 0 500 500" fill="none" xmlns="http://www.w3.org/2000/svg">
<path fill-rule="evenodd" clip-rule="evenodd" d="M468.61 0.830078C485.39 0.830276 499 14.44 499 31.2197V302.11C499 318.9 485.39 332.5 468.61 332.5H352.67L259.51 493.87C255.28 501.18 244.72 501.18 240.49 493.87L147.33 332.5H31.3896C14.6099 332.5 1.00015 318.9 1 302.11V31.2197C1.00019 14.44 14.6099 0.830268 31.3896 0.830078H468.61ZM177.93 169.95C175.18 169.98 172.709 171.081 170.899 172.891C169.96 173.861 169.239 174.951 168.739 176.141C168.269 177.33 167.989 178.61 167.989 179.95V209.971C167.989 215.5 172.46 219.971 177.989 219.971C183.519 219.971 187.989 215.501 187.989 209.971V204.13L220.89 237.061C224.79 240.97 231.13 240.97 235.04 237.061C238.95 233.161 238.95 226.82 235.04 222.91L202.14 189.98V189.95H207.949C213.479 189.95 217.949 185.48 217.949 179.95C217.949 174.42 213.479 169.95 207.949 169.95H177.93ZM68.0195 169.98C62.4895 169.98 58.0195 174.45 58.0195 179.98C58.0196 185.51 62.4896 189.98 68.0195 189.98H73.8594L40.9297 222.88C37.0197 226.78 37.0197 233.12 40.9297 237.03C44.8296 240.94 51.1691 240.94 55.0791 237.03L88.0098 204.13V209.94C88.0098 215.47 92.4798 219.94 98.0098 219.94C103.54 219.94 108.01 215.47 108.01 209.94V179.95C108.01 178.61 107.76 177.33 107.26 176.141C106.76 174.981 106.04 173.89 105.1 172.92L105.069 172.891C103.259 171.101 100.79 169.981 98.04 169.98H68.0195ZM138 139.98C126.95 139.98 118 148.94 118 159.98C118 171.03 126.95 179.98 138 179.98C149.05 179.98 158 171.03 158 159.98C158 148.931 149.05 139.981 138 139.98ZM235.069 82.9404C231.169 79.0305 224.83 79.0306 220.92 82.9404L187.989 115.84V110C187.989 104.47 183.519 100 177.989 100C172.46 100 167.989 104.47 167.989 110V140.021C167.989 141.39 168.239 142.67 168.739 143.83C169.239 144.99 169.959 146.081 170.899 147.051L170.93 147.08C172.74 148.87 175.239 149.99 177.989 149.99H207.979C213.509 149.99 217.979 145.52 217.979 139.99C217.979 134.46 213.509 129.99 207.979 129.99H202.14L235.069 97.0898C238.979 93.1898 238.979 86.8504 235.069 82.9404ZM55.0791 82.9404C51.1791 79.0307 44.8699 79.0306 40.96 82.9404C37.05 86.8404 37.05 93.1505 40.96 97.0605L73.8594 129.96H68.0195C62.4897 129.96 58.0197 134.43 58.0195 139.96C58.0195 145.49 62.4895 149.96 68.0195 149.96H98.04C99.3799 149.96 100.66 149.71 101.85 149.21C103.009 148.71 104.099 147.991 105.069 147.051L105.1 147.021C106.07 146.081 106.76 144.961 107.26 143.801C107.73 142.651 108.01 141.33 108.01 139.99V110C108.01 104.47 103.54 100 98.0098 100C92.4799 100 88.0099 104.47 88.0098 110V115.84L55.0791 82.9404Z" fill="white"/>
</svg>
