<?xml version="1.0" encoding="UTF-8"?><svg id="uuid-109279fa-9051-48db-8427-775c4658d158" xmlns="http://www.w3.org/2000/svg" width="500" height="500" viewBox="0 0 500 500"><defs><style>.uuid-023daad2-62f8-4bd6-bd7b-bd1c32b19c2f{fill:#f6f7f9;}.uuid-023daad2-62f8-4bd6-bd7b-bd1c32b19c2f,.uuid-5430a142-8434-49ba-b92d-fa6c992694aa{stroke-width:0px;}.uuid-5430a142-8434-49ba-b92d-fa6c992694aa{fill:#1591c2;}</style></defs><path class="uuid-5430a142-8434-49ba-b92d-fa6c992694aa" d="M499,31.22v270.89c0,16.79-13.61,30.39-30.39,30.39h-115.94l-41.66,72.17-51.5,89.2c-4.23,7.31-14.79,7.31-19.02,0l-51.5-89.2-41.66-72.17H31.39c-16.78,0-30.39-13.6-30.39-30.39V31.22C1,14.44,14.61.83,31.39.83h437.22c16.78,0,30.39,13.61,30.39,30.39Z"/><path class="uuid-023daad2-62f8-4bd6-bd7b-bd1c32b19c2f" d="M40.96,82.94c3.91-3.91,10.22-3.91,14.12,0l32.93,32.9v-5.84c0-5.53,4.47-10,10-10s10,4.47,10,10v29.99c0,1.34-.28,2.66-.75,3.81-.5,1.16-1.19,2.28-2.16,3.22l-.03.03c-.97.94-2.06,1.66-3.22,2.16-1.19.5-2.47.75-3.81.75h-30.02c-5.53,0-10-4.47-10-10s4.47-10,10-10h5.84l-32.9-32.9c-3.91-3.91-3.91-10.22,0-14.12ZM118,159.98c0-11.04,8.95-20,20-20s20,8.95,20,20-8.95,20-20,20-20-8.95-20-20ZM73.86,189.98h-5.84c-5.53,0-10-4.47-10-10s4.47-10,10-10h30.02c2.75,0,5.22,1.12,7.03,2.91l.03.03c.94.97,1.66,2.06,2.16,3.22.5,1.19.75,2.47.75,3.81v29.99c0,5.53-4.47,10-10,10s-10-4.47-10-10v-5.81l-32.93,32.9c-3.91,3.91-10.25,3.91-14.15,0-3.91-3.91-3.91-10.25,0-14.15l32.93-32.9ZM167.99,110c0-5.53,4.47-10,10-10s10,4.47,10,10v5.84l32.93-32.9c3.91-3.91,10.25-3.91,14.15,0,3.91,3.91,3.91,10.25,0,14.15l-32.93,32.9h5.84c5.53,0,10,4.47,10,10s-4.47,10-10,10h-29.99c-2.75,0-5.25-1.12-7.06-2.91l-.03-.03c-.94-.97-1.66-2.06-2.16-3.22s-.75-2.44-.75-3.81v-.03h0v-29.99ZM202.14,189.98l32.9,32.93c3.91,3.91,3.91,10.25,0,14.15-3.91,3.91-10.25,3.91-14.15,0l-32.9-32.93v5.84c0,5.53-4.47,10-10,10s-10-4.47-10-10v-29.99h0v-.03c0-1.34.28-2.62.75-3.81.5-1.19,1.22-2.28,2.16-3.25,1.81-1.81,4.28-2.91,7.03-2.94h30.02c5.53,0,10,4.47,10,10s-4.47,10-10,10h-5.81v.03Z"/></svg>