<?xml version="1.0" encoding="UTF-8"?><svg id="uuid-81d898e6-8b41-48a5-985d-e0c8a58891a3" xmlns="http://www.w3.org/2000/svg" width="500" height="500" viewBox="0 0 500 500"><defs><style>.uuid-e4c9f7d4-4aad-4ff9-a3be-28bfe69250a6{fill:#333739;stroke-width:0px;}</style></defs><path class="uuid-e4c9f7d4-4aad-4ff9-a3be-28bfe69250a6" d="M373.74,51.99c13.69,0,24.75,11.06,24.75,24.75h86.63c6.81,0,12.38,5.57,12.38,12.38v99c0,6.81-5.57,12.38-12.38,12.38h-86.63v247.51h-49.5V76.74c0-13.69,11.06-24.75,24.75-24.75ZM216.58,82.7l107.67,92.28v273.04h.77H76.73c-13.69,0-24.75-11.06-24.75-24.75v-148.51h-24.75c-10.36,0-19.65-6.42-23.2-16.17-3.56-9.75-.77-20.65,7.12-27.38L184.4,82.7c9.28-7.97,22.97-7.97,32.25,0h-.08ZM175.74,212.87v37.13h-37.13c-6.81,0-12.38,5.57-12.38,12.38v24.75c0,6.81,5.57,12.38,12.38,12.38h37.13v37.13c0,6.81,5.57,12.38,12.38,12.38h24.75c6.81,0,12.38-5.57,12.38-12.38v-37.13h37.13c6.81,0,12.38-5.57,12.38-12.38v-24.75c0-6.81-5.57-12.38-12.38-12.38h-37.13v-37.13c0-6.81-5.57-12.38-12.38-12.38h-24.75c-6.81,0-12.38,5.57-12.38,12.38Z"/></svg>