<svg id="Calque_1" data-name="Calque 1" xmlns="http://www.w3.org/2000/svg" width="500px"
  height="500px" viewbox="0 0 500 500">
  <defs>
    <style>
      .cls-1 {
      fill: #f6f7f9;
      }

      .cls-2 {
      fill: #464ca6;
      }
    </style>
  </defs>
  <path class="cls-2"
    d="m478,49.62v177.82c0,41.16-24.41,84.69-57.27,124.62-56.46,68.62-137.84,126.63-163,143.8-4.65,3.17-10.76,3.17-15.4,0-25.16-17.17-106.55-75.18-163.01-143.8-30.11-36.6-53.15-76.23-56.77-114.29V49.62c0-17.52,14.34-31.86,31.86-31.86h391.72c17.52,0,31.86,14.34,31.86,31.86Z" />
  <g>
    <path class="cls-1"
      d="m144.8,107.18c-6.15-3.32-13.59-4.98-22.33-4.98h-45.46v115.21h24.36v-37.35h20.48c8.85,0,16.4-1.63,22.64-4.89,6.24-3.26,11.02-7.82,14.32-13.67s4.95-12.6,4.95-20.25-1.62-14.41-4.87-20.28c-3.24-5.87-7.94-10.46-14.09-13.78Zm-8.41,44.11c-1.52,2.91-3.81,5.18-6.86,6.81-3.06,1.63-6.93,2.45-11.62,2.45h-16.54v-38.42h16.43c4.73,0,8.63.8,11.7,2.39,3.07,1.59,5.37,3.83,6.89,6.69,1.52,2.87,2.28,6.22,2.28,10.04s-.76,7.14-2.28,10.04Z" />
    <polygon class="cls-1"
      points="242.74 179.61 241.39 179.61 209.67 102.2 179.62 102.2 179.62 217.42 203.25 217.42 203.25 142.15 204.21 142.15 234.02 216.85 250.11 216.85 279.93 142.43 280.88 142.43 280.88 217.42 304.51 217.42 304.51 102.2 274.47 102.2 242.74 179.61" />
    <path class="cls-1"
      d="m403.07,217.42h26.1l-39.72-115.21h-31.39l-39.77,115.21h26.1l8.55-26.27h41.6l8.53,26.27Zm-43.94-45.29l14.18-43.6h.9l14.16,43.6h-29.24Z" />
  </g>
</svg>