<svg width="500" height="500" viewBox="0 0 500 500" fill="none" xmlns="http://www.w3.org/2000/svg">
<path d="M122.99 140C125.74 140 127.99 142.25 127.99 145V160H142.99C145.74 160 147.99 162.25 147.99 165V175C147.99 177.75 145.74 180 142.99 180H127.99V195C127.99 197.75 125.74 200 122.99 200H112.99C110.24 200 107.99 197.75 107.99 195V180H92.9902C90.2402 180 87.9902 177.75 87.9902 175V165C87.9902 162.25 90.2402 160 92.9902 160H107.99V145C107.99 142.25 110.24 140 112.99 140H122.99Z" fill="white"/>
<path fill-rule="evenodd" clip-rule="evenodd" d="M468.61 0.830078C485.39 0.830276 499 14.44 499 31.2197V302.11C499 318.9 485.39 332.5 468.61 332.5H352.67L259.51 493.87C255.28 501.18 244.72 501.18 240.49 493.87L147.33 332.5H31.3896C14.6099 332.5 1.00015 318.9 1 302.11V31.2197C1.00019 14.44 14.6099 0.830268 31.3896 0.830078H468.61ZM124.52 92.4102C120.77 89.1903 115.24 89.1903 111.49 92.4102L41.4902 152.41C38.3003 155.13 37.1704 159.53 38.6104 163.47C40.0504 167.41 43.8002 170 47.9902 170H57.9902V230C57.9902 235.53 62.4602 240 67.9902 240H168V129.68L124.512 92.4102H124.52ZM188 80C182.47 80 178 84.47 178 90V240H198V140H233C235.75 140 238 137.75 238 135V95C238 92.25 235.75 90 233 90H198C198 84.47 193.53 80 188 80Z" fill="white"/>
</svg>
