<?xml version="1.0" encoding="UTF-8"?><svg id="uuid-be217947-81c6-4872-819c-957a6d6d995c" xmlns="http://www.w3.org/2000/svg" width="500" height="500" viewBox="0 0 500 500"><defs><style>.uuid-c4e2f426-3d30-4999-b3c4-cb8c47c63d42{fill:#f6f7f9;}.uuid-c4e2f426-3d30-4999-b3c4-cb8c47c63d42,.uuid-0c92fcbc-0cc6-4c6c-927b-317221b0e901{stroke-width:0px;}.uuid-0c92fcbc-0cc6-4c6c-927b-317221b0e901{fill:#1591c2;}</style></defs><path class="uuid-0c92fcbc-0cc6-4c6c-927b-317221b0e901" d="M499,31.22v270.89c0,16.79-13.61,30.39-30.39,30.39h-115.94l-41.66,72.17-51.5,89.2c-4.23,7.31-14.79,7.31-19.02,0l-51.5-89.2-41.66-72.17H31.39c-16.78,0-30.39-13.6-30.39-30.39V31.22C1,14.44,14.61.83,31.39.83h437.22c16.78,0,30.39,13.61,30.39,30.39Z"/><path class="uuid-c4e2f426-3d30-4999-b3c4-cb8c47c63d42" d="M188,80c5.53,0,10,4.47,10,10h35c2.75,0,5,2.25,5,5v40c0,2.75-2.25,5-5,5h-35v100h-20V90c0-5.53,4.47-10,10-10ZM124.5,92.4l43.5,37.28v110.32h.31-100.32c-5.53,0-10-4.47-10-10v-60h-10c-4.19,0-7.94-2.59-9.38-6.53-1.44-3.94-.31-8.34,2.88-11.06l70-60c3.75-3.22,9.28-3.22,13.03,0h-.03ZM107.99,145v15h-15c-2.75,0-5,2.25-5,5v10c0,2.75,2.25,5,5,5h15v15c0,2.75,2.25,5,5,5h10c2.75,0,5-2.25,5-5v-15h15c2.75,0,5-2.25,5-5v-10c0-2.75-2.25-5-5-5h-15v-15c0-2.75-2.25-5-5-5h-10c-2.75,0-5,2.25-5,5Z"/></svg>