<?xml version="1.0" encoding="UTF-8"?>
<svg id="Calque_1" data-name="Calque 1" xmlns="http://www.w3.org/2000/svg" viewBox="0 0 500 500">
  <defs>
    <style>
      .cls-1 {
        fill: #464ca6;
      }
    </style>
  </defs>
  <path class="cls-1" d="m449.89,282.45c-7.43,21.36-62.21,22.28-62.21,22.28,0,0-3.93-.03-10.9-.07.15-1.35.22-2.72.22-4.1,0-21.5-17.49-39-39-39s-39,17.49-39,39c0,1.22.06,2.42.17,3.62-37.36-.24-80.96-.51-119.12-.75.06-.95.1-1.9.1-2.87,0-21.5-17.49-39-39-39s-39,17.49-39,39c0,.81.03,1.61.07,2.4-11.63-.07-18.48-.1-18.48-.09-8.05-.28-35.85-3.57-35.45-35.74,0,0-1.86-20.43,3.71-34.36,5.57-13.93,34.36-31.57,48.28-36.21,9.47-3.16,72.62-10.6,121.41-12.13v-10.62c0-4.35,3.55-7.89,7.89-7.89h3.95c4.35,0,7.89,3.55,7.89,7.89v10.36c14.23.11,25.86,1.03,32.5,3.1,29.71,9.29,70.57,32.5,70.57,32.5,0,0,82.18,6.96,90.53,17.18,8.36,10.21,22.28,24.14,14.86,45.5Z"/>
  <path class="cls-1" d="m174.58,300.55c.6,21.83-22.7,38.98-43.36,31.92-31.11-9.8-31.1-54.05,0-63.85,20.66-7.05,43.96,10.09,43.36,31.92Z"/>
  <path class="cls-1" d="m371.43,300.55c.56,23.62-25.87,40.73-47.18,30.46-26.02-11.5-26.02-49.43,0-60.93,21.3-10.26,47.74,6.84,47.18,30.47Z"/>
</svg>