<svg id="Calque_1" data-name="Calque 1" xmlns="http://www.w3.org/2000/svg" width="500"
  height="500">
  <defs>
    <style>
      .cls-1 {
      fill: #1e272e;
      }

      .cls-2 {
      fill: #f78c60;
      }

      .cls-3 {
      fill: #ffcd6d;
      }
    </style>
  </defs>
  <g>
    <polygon class="cls-2"
      points="244.57 140.59 318.96 42.95 353.97 155.89 472.79 111.18 399.86 250 497.5 331.17 369.27 333.53 396.61 454.7 271.62 385.29 178.97 457.05 166.92 330 2.5 301.76 148.1 211.18 83.67 79.42 244.57 140.59" />
    <polygon class="cls-3"
      points="246.88 187.21 289.57 131.18 309.67 195.99 377.85 170.34 336 250 392.03 296.58 318.44 297.93 334.13 367.47 262.41 327.64 209.24 368.82 202.32 295.91 107.97 279.71 191.52 227.72 154.55 152.11 246.88 187.21" />
  </g>
  <path class="cls-1"
    d="m261.76,308.53c-3.62,0-6.72-1.29-9.3-3.85-2.59-2.57-3.88-5.68-3.88-9.33s1.29-6.65,3.88-9.2c2.58-2.55,5.68-3.83,9.3-3.83s6.55,1.28,9.2,3.83c2.65,2.55,3.98,5.62,3.98,9.2,0,2.43-.62,4.65-1.85,6.64-1.24,1.99-2.84,3.58-4.82,4.77-1.98,1.18-4.15,1.77-6.51,1.77Zm12.78-105.3l-2.33,72.04h-20.83l-2.33-72.04h25.5Z" />
</svg>